<svg width="82" height="80" viewBox="0 0 82 80" fill="none" xmlns="http://www.w3.org/2000/svg">
<path d="M6.59008 72.0069H40.8602V69.3368H6.59008C4.40749 69.3368 2.63942 67.5481 2.63942 65.3402V6.66667C2.63942 4.45871 4.40749 2.67009 6.59008 2.67009H64.5811C66.7637 2.67009 68.5318 4.45871 68.5318 6.66667V37.3385H71.1712V6.66667C71.1628 2.98674 68.2188 0 64.5811 0H6.59008C2.95243 0.00855798 0.00845967 2.98674 0 6.66667V65.3316C0.00845967 69.0201 2.95243 71.9983 6.59008 72.0069Z" fill="#3EDA8E"/>
<path d="M5.27148 5.33203H7.91091V8.00212H5.27148V5.33203Z" fill="#3EDA8E"/>
<path d="M10.541 5.33203H13.1804V8.00212H10.541V5.33203Z" fill="#3EDA8E"/>
<path d="M15.8203 5.33203H18.4597V8.00212H15.8203V5.33203Z" fill="#3EDA8E"/>
<path d="M5.27148 10.6641H65.9019V13.3342H5.27148V10.6641Z" fill="#3EDA8E"/>
<path d="M18.8397 16.3867L15.4897 19.7757C12.6557 17.8844 8.8742 18.4577 6.72544 21.1193C4.57668 23.7808 4.77126 27.649 7.1738 30.0795C9.57635 32.51 13.4001 32.7068 16.0311 30.5331C18.662 28.3593 19.2373 24.5254 17.3592 21.667L20.7093 18.278L18.8397 16.3867ZM11.8605 29.3349C9.67787 29.3349 7.90979 27.5463 7.90979 25.3384C7.90979 23.1304 9.67787 21.3418 11.8605 21.3418C12.4526 21.3418 13.0279 21.4787 13.5524 21.744L10.9299 24.397L12.791 26.2797L15.422 23.6268C15.6758 24.1574 15.8111 24.7479 15.8196 25.3384C15.8196 27.5378 14.0431 29.3349 11.8605 29.3349Z" fill="#3EDA8E"/>
<path d="M22.4092 21.3359H44.8189V24.006H22.4092V21.3359Z" fill="#3EDA8E"/>
<path d="M22.4092 26.668H31.6387V29.3381H22.4092V26.668Z" fill="#3EDA8E"/>
<path d="M34.2705 26.668H52.721V29.3381H34.2705V26.668Z" fill="#3EDA8E"/>
<path d="M47.4482 21.3359H60.6284V24.006H47.4482V21.3359Z" fill="#3EDA8E"/>
<path d="M18.8397 32.3945L15.4897 35.7835C12.6557 33.8922 8.8742 34.4656 6.72544 37.1271C4.57668 39.7886 4.77126 43.6568 7.1738 46.0873C9.57635 48.5177 13.4001 48.706 16.0311 46.5408C18.662 44.3671 19.2373 40.5332 17.3592 37.6748L20.7093 34.2858L18.8397 32.3945ZM11.8605 45.3342C9.67787 45.3342 7.90979 43.5456 7.90979 41.3376C7.90979 39.1296 9.67787 37.341 11.8605 37.341C12.4526 37.341 13.0279 37.478 13.5524 37.7433L10.9299 40.3962L12.791 42.279L15.422 39.626C15.6758 40.1566 15.8111 40.7471 15.8196 41.3376C15.8196 43.5456 14.0431 45.3342 11.8605 45.3342Z" fill="#3EDA8E"/>
<path d="M22.4092 37.3398H44.8189V40.0099H22.4092V37.3398Z" fill="#3EDA8E"/>
<path d="M22.4092 42.6699H31.6387V45.34H22.4092V42.6699Z" fill="#3EDA8E"/>
<path d="M34.2705 42.6699H44.8113V45.34H34.2705V42.6699Z" fill="#3EDA8E"/>
<path d="M47.4482 37.3398H52.7186V40.0099H47.4482V37.3398Z" fill="#3EDA8E"/>
<path d="M18.8397 48.3965L15.4897 51.7769C12.6557 49.8856 8.8742 50.459 6.72544 53.1205C4.57668 55.782 4.77126 59.6502 7.1738 62.0807C9.57635 64.5112 13.4001 64.6994 16.0311 62.5343C18.662 60.3605 19.2373 56.5266 17.3592 53.6682L20.7093 50.2792L18.8397 48.3965ZM11.8605 61.3362C9.67787 61.3362 7.90979 59.5475 7.90979 57.3396C7.90979 55.1316 9.67787 53.343 11.8605 53.343C12.4526 53.343 13.0279 53.4799 13.5524 53.7452L10.9299 56.3982L12.791 58.281L15.422 55.628C15.6758 56.1586 15.8111 56.7491 15.8196 57.3396C15.8196 59.5475 14.0431 61.3362 11.8605 61.3362Z" fill="#3EDA8E"/>
<path d="M22.4092 53.332H39.54V56.0021H22.4092V53.332Z" fill="#3EDA8E"/>
<path d="M22.4092 58.6641H31.6387V61.3342H22.4092V58.6641Z" fill="#3EDA8E"/>
<path d="M34.2705 58.6641H39.5409V61.3342H34.2705V58.6641Z" fill="#3EDA8E"/>
<path d="M61.9499 80C72.8714 80 81.7202 71.0484 81.7202 60C81.7202 48.9516 72.8714 40 61.9499 40C51.0285 40 42.1797 48.9602 42.1797 60C42.1881 71.0398 51.037 79.9914 61.9499 80ZM61.9499 42.6701C71.4163 42.6701 79.0808 50.4322 79.0808 60C79.0808 69.5678 71.4078 77.3299 61.9499 77.3299C52.4836 77.3299 44.8106 69.5678 44.8106 60C44.8276 50.4322 52.492 42.6786 61.9499 42.6701Z" fill="#3EDA8E"/>
<path d="M53.9149 60.7356L51.5547 61.9251L54.1941 67.2568C54.3802 67.6419 54.744 67.9072 55.1585 67.9756C55.2262 67.9842 55.2939 67.9927 55.3615 67.9927C55.7084 67.9927 56.0468 67.8558 56.2921 67.5991L72.1117 51.5956L70.2506 49.7129L55.7253 64.4155L53.9149 60.7356Z" fill="#3EDA8E"/>
</svg>
