<svg width="83" height="100" viewBox="0 0 83 100" fill="none" xmlns="http://www.w3.org/2000/svg">
<g clip-path="url(#clip0)">
<path d="M41.7707 0C42.9353 0.547196 43.3817 1.48525 43.3041 2.75552C43.2459 3.7522 43.3041 4.76842 43.2847 5.7651C43.2653 7.094 42.45 8.01251 41.266 8.03205C40.0237 8.05159 39.1696 7.19171 39.1308 5.78464C39.092 4.78796 39.1696 3.77174 39.1114 2.77506C39.0338 1.52433 39.4608 0.566738 40.606 0C40.9942 0 41.3824 0 41.7707 0Z" fill="#3EDA8E"/>
<path d="M52.2731 81.5905C53.3601 81.9032 54.0977 82.5286 54.0977 83.7011C54.0977 84.8737 53.3795 85.5381 52.2925 85.8313C52.2925 86.8475 52.2925 87.8051 52.2925 88.5673C52.8943 89.1145 53.5154 89.4662 53.8454 90.0134C54.583 91.2642 53.7677 92.808 52.2925 92.9839C51.5938 93.0816 51.2444 93.3943 50.9144 93.9806C46.9546 101.172 38.1034 102.071 32.7849 95.8762C31.1932 94.0197 30.4556 91.8895 30.1451 89.5053C30.1062 89.1926 29.8539 88.8213 29.6016 88.6454C28.1458 87.7074 28.1069 85.8117 29.5822 84.991C30.0674 84.7174 30.1839 84.4242 30.1451 83.9356C30.1257 83.6034 30.1257 83.2907 30.1451 82.9585C30.1839 82.1963 30.1451 81.6101 29.3104 81.141C28.204 80.5157 28.1846 78.8545 29.1939 78.0338C29.7763 77.5647 29.7763 77.1739 29.5822 76.5485C27.9323 71.0375 24.6519 66.5817 20.7309 62.5169C14.6554 56.2632 11.8797 48.7002 12.4232 40.0037C12.9861 30.9163 16.8294 23.451 24.2442 18.1354C40.4715 6.50749 64.8706 14.0705 69.4127 35.5088C71.6255 45.9837 68.8498 55.2079 61.3573 62.9272C58.1933 66.1909 55.5341 69.8063 53.7677 74.047C53.5542 74.5747 53.4378 75.0046 53.7871 75.5714C54.3112 76.4313 54.0977 77.6429 53.2436 78.0728C52.2925 78.5614 52.2925 79.2845 52.2731 80.0857C52.2537 80.5743 52.2731 81.0629 52.2731 81.5905ZM33.9107 76.8807C34.0466 76.9198 34.1048 76.9589 34.163 76.9394C38.9575 76.2554 43.7519 75.5714 48.5463 74.8483C48.8374 74.8092 49.2062 74.4574 49.3227 74.1838C51.3608 68.3797 54.9324 63.6112 59.1056 59.2337C64.7347 53.3318 67.2775 46.2378 65.9382 38.1471C64.3271 28.3562 58.6398 21.5358 49.4198 18.1354C40.355 14.7936 31.9891 16.7088 24.7489 23.0602C13.7043 32.7338 13.2579 49.0519 23.6231 59.5659C26.1077 62.0869 28.3205 64.8424 30.1645 67.9106C31.8532 70.7052 33.1343 73.6953 33.9107 76.8807ZM48.1581 79.1477C43.5189 79.8121 38.9575 80.4766 34.3766 81.141C34.3766 82.1573 34.3766 83.0953 34.3766 84.0724C34.5901 84.0724 34.7065 84.092 34.8424 84.0724C39.0933 83.4666 43.3443 82.8803 47.5952 82.2354C47.8087 82.1963 48.1193 81.8055 48.1387 81.5514C48.1969 80.7697 48.1581 79.988 48.1581 79.1477ZM34.5707 91.3619C39.0739 90.717 43.3831 90.1111 47.6922 89.4662C47.8669 89.4467 48.1193 89.1535 48.1193 88.9581C48.1581 88.1178 48.1387 87.297 48.1387 86.3785C43.4607 87.0429 38.9186 87.7074 34.2213 88.3914C34.3572 89.3881 34.4542 90.3066 34.5707 91.3619ZM38.1034 95.0554C40.3162 96.4625 44.2566 95.9153 46.0035 93.9415C43.3443 94.3128 40.8015 94.6841 38.1034 95.0554Z" fill="#3EDA8E"/>
<path d="M18.3253 16.1041C18.3448 17.2375 17.9565 17.8824 17.1995 18.2733C16.4425 18.6642 15.6467 18.6251 15.0256 18.0388C13.7639 16.8662 12.541 15.6546 11.3958 14.3843C10.6776 13.5831 10.8135 12.3714 11.5705 11.6483C12.3081 10.9252 13.5309 10.8275 14.3074 11.5506C15.5496 12.7036 16.7143 13.9153 17.8789 15.1465C18.1701 15.4396 18.2477 15.9282 18.3253 16.1041Z" fill="#3EDA8E"/>
<path d="M15.78 64.8418C16.867 64.8418 17.4881 65.2717 17.8763 66.0144C18.2645 66.7961 18.1869 67.5778 17.6046 68.2031C16.5564 69.3366 15.45 70.4505 14.3048 71.5058C13.5284 72.2289 12.3249 72.1117 11.5679 71.3691C10.8303 70.646 10.6556 69.493 11.335 68.7112C12.422 67.4801 13.6254 66.327 14.8289 65.1936C15.12 64.9591 15.5859 64.9004 15.78 64.8418Z" fill="#3EDA8E"/>
<path d="M69.0834 71.9746C68.8505 71.8574 68.307 71.6815 67.9188 71.3297C66.9483 70.4308 66.0166 69.4732 65.1043 68.5156C64.2114 67.5775 64.2114 66.2877 65.0655 65.4669C65.9001 64.6657 67.1036 64.6852 68.0159 65.5646C68.9864 66.5027 69.9569 67.4798 70.8886 68.457C71.5098 69.1019 71.665 69.8836 71.2962 70.7044C70.9469 71.5447 70.2869 71.9551 69.0834 71.9746Z" fill="#3EDA8E"/>
<path d="M64.4629 15.6938C64.5794 15.4789 64.754 14.9317 65.1034 14.5408C65.9963 13.5637 66.9474 12.6256 67.8986 11.7071C68.7915 10.8472 70.0531 10.8472 70.849 11.6485C71.6642 12.4693 71.6836 13.7005 70.8296 14.619C69.8979 15.6157 68.9273 16.5733 67.9568 17.5113C67.2774 18.1562 66.4816 18.293 65.6275 17.8826C64.8705 17.5308 64.4823 16.8859 64.4629 15.6938Z" fill="#3EDA8E"/>
<path d="M78.5366 39.4581C79.1772 39.4581 79.8177 39.4385 80.4777 39.4581C81.5841 39.5167 82.4381 40.357 82.477 41.4514C82.5158 42.5849 81.6811 43.5425 80.5359 43.5816C79.1578 43.6402 77.7602 43.6402 76.3821 43.5816C75.2951 43.5425 74.4604 42.5849 74.4798 41.5101C74.4992 40.4352 75.3339 39.5362 76.4209 39.4776C77.1197 39.419 77.8184 39.4581 78.5366 39.4581Z" fill="#3EDA8E"/>
<path d="M3.99892 43.6001C3.31955 43.6001 2.64018 43.6196 1.96081 43.6001C0.796173 43.5414 -0.0190713 42.662 0.000339323 41.509C0.0197499 40.3951 0.796173 39.5157 1.92199 39.4961C3.30014 39.457 4.6977 39.457 6.07585 39.4961C7.14343 39.5352 7.97809 40.5123 7.95868 41.5872C7.93926 42.6229 7.12402 43.5414 6.09526 43.6001C5.41589 43.6196 4.6977 43.5805 3.99892 43.6001C3.99892 43.5805 3.99892 43.5805 3.99892 43.6001Z" fill="#3EDA8E"/>
<path d="M37.1142 48.7595C37.4054 48.4273 37.6383 48.1732 37.8712 47.8996C42.1027 42.7599 46.3148 37.6006 50.5463 32.4804C50.8957 32.0505 51.4004 31.6596 51.9245 31.4838C52.798 31.2102 53.5938 31.5228 54.1179 32.3241C54.6226 33.0667 54.5837 34.0634 53.9432 34.8646C52.0215 37.2293 50.0805 39.594 48.1394 41.9391C45.1308 45.5936 42.1222 49.2676 39.1135 52.9221C37.9101 54.3878 36.6484 54.4464 35.3867 53.0394C33.6009 51.0655 31.8151 49.0917 30.0488 47.0984C29.0782 46.0235 29.0588 44.7142 29.9517 43.8934C30.864 43.053 32.1063 43.2094 33.0962 44.2842C34.4162 45.7695 35.7361 47.2352 37.1142 48.7595Z" fill="#3EDA8E"/>
</g>
<defs>
<clipPath id="clip0">
<rect width="82.4561" height="100" fill="white"/>
</clipPath>
</defs>
</svg>
