<svg width="100" height="101" viewBox="0 0 100 101" fill="none" xmlns="http://www.w3.org/2000/svg">
<path d="M31.7621 39.0034C31.4886 38.4759 30.9807 38.1438 30.3946 38.1047L16.3679 37.167C15.6451 37.0889 14.9613 37.5382 14.7074 38.2219L4.58781 64.0483C4.31431 64.732 4.52921 65.533 5.13482 65.9823C5.42785 66.2168 5.7795 66.3144 6.15068 66.3144C6.50232 66.3144 6.85397 66.1972 7.147 65.9823L15.5474 59.6918L20.4313 60.6686C21.2323 60.8249 22.0333 60.3951 22.3068 59.6332C24.9246 52.7566 28.0894 46.3684 31.684 40.6444C31.9965 40.156 32.0161 39.5308 31.7621 39.0034ZM19.689 57.1326L15.4497 56.2926C14.9809 56.1949 14.512 56.3121 14.1213 56.5856L9.82341 59.809L17.3642 40.5662L27.4252 41.2305C24.5143 46.1535 21.9356 51.4868 19.689 57.1326Z" fill="#3EDA8E"/>
<path d="M62.8457 83.6435L61.908 69.6168C61.8689 69.0307 61.5172 68.5033 61.0093 68.2493C60.4818 67.9758 59.8567 68.0149 59.3683 68.3275C53.6443 71.922 47.2561 75.0868 40.3795 77.7046C39.6176 77.9977 39.1878 78.7986 39.3441 79.5801L40.3209 84.464L34.0304 92.8449C33.581 93.4505 33.581 94.271 34.0304 94.8571C34.3429 95.2869 34.8509 95.5213 35.3588 95.5213C35.5541 95.5213 35.769 95.4822 35.9644 95.4041L61.8103 85.2845C62.4745 85.0501 62.9043 84.3859 62.8457 83.6435ZM40.2037 90.188L43.4271 85.8901C43.7201 85.519 43.8178 85.0306 43.7201 84.5617L42.8801 80.3224C48.5455 78.0954 53.8592 75.4971 58.7822 72.6058L59.4464 82.6667L40.2037 90.188Z" fill="#3EDA8E"/>
<path d="M48.33 50.0215H37.097C36.4914 50.0215 35.9443 50.3536 35.6318 50.8811L21.5269 76.219C21.1558 76.8832 21.2925 77.7037 21.82 78.2312C22.1325 78.5438 22.5623 78.7 22.9726 78.7C23.2656 78.7 23.5587 78.6219 23.8322 78.4656L49.1896 63.1105C49.6975 62.8174 49.9906 62.2704 49.9906 61.6844V51.682C49.9906 50.7638 49.2482 50.0215 48.33 50.0215ZM46.65 60.7466L27.5049 72.3314L38.0737 53.3426H46.6695V60.7466H46.65Z" fill="#3EDA8E"/>
<path d="M99.922 1.6127C99.8439 0.792195 99.2187 0.16705 98.3982 0.0889067C97.8317 0.0498351 42.9556 -3.77918 19.1806 58.4423C18.9461 59.0479 19.1024 59.7512 19.5517 60.2201L27.4833 68.1516C27.8545 68.5228 28.3819 68.6986 28.8898 68.6205C29.4173 68.5423 29.8666 68.2298 30.1206 67.7804L38.0521 53.363H46.6284V60.7866L32.1133 69.9489C31.6835 70.2224 31.41 70.6717 31.3514 71.1797C31.2928 71.6876 31.4686 72.176 31.8202 72.5472L39.7518 80.4787C40.0643 80.7913 40.4941 80.9671 40.9239 80.9671C41.1193 80.9671 41.3342 80.928 41.51 80.8499C103.79 57.0553 99.9611 2.1597 99.922 1.6127ZM91.17 31.1899C85.3288 45.6659 71.9272 65.3385 41.3732 77.3139L35.6883 71.629L49.2071 63.1114C49.6955 62.7988 49.9885 62.2713 49.9885 61.7048V51.7025C49.9885 50.7843 49.2462 50.0419 48.328 50.0419H37.0949C36.4893 50.0419 35.9227 50.374 35.6297 50.9015L28.2842 64.2445L22.697 58.6572C43.5417 5.42218 88.0052 3.25371 96.64 3.37092C96.7181 7.25854 96.347 18.3744 91.17 31.1899Z" fill="#3EDA8E"/>
<path d="M28.5386 73.6388C28.1674 73.1504 27.6009 72.916 27.0344 72.9941C27.093 72.4276 26.8585 71.861 26.3897 71.4899C23.8696 69.5949 20.6266 68.9502 17.4814 69.7512C14.1407 70.5912 11.4057 72.8769 9.99914 76.0026L0.153098 97.6874C-0.139939 98.3125 -0.00318833 99.0744 0.485207 99.5628C0.797779 99.8754 1.22757 100.051 1.65735 100.051C1.89178 100.051 2.12621 99.9926 2.34111 99.8949L24.0258 90.0294C27.1516 88.6032 29.4177 85.8878 30.2773 82.5471C31.0587 79.4019 30.4336 76.1394 28.5386 73.6388ZM27.0344 81.7071C26.4287 84.0514 24.8268 85.9854 22.6388 86.9818L4.99798 94.9915L13.0077 77.3506C14.004 75.1626 15.938 73.5411 18.2823 72.955C18.9075 72.7988 19.5131 72.7206 20.1382 72.7206C21.1736 72.7206 22.1895 72.9355 23.1077 73.3653L21.5253 76.1785C21.1541 76.8231 21.2713 77.6436 21.7988 78.1711C22.3262 78.6986 23.1467 78.8158 23.7914 78.4446L26.6046 76.8622C27.3079 78.3469 27.4641 80.0466 27.0344 81.7071Z" fill="#3EDA8E"/>
<path d="M99.9228 1.61119C99.8446 0.790691 99.2195 0.165545 98.399 0.0874022C97.7543 0.0287948 82.3015 -1.14335 64.1136 7.2375C63.6252 7.47193 63.2736 7.92126 63.1759 8.44872C63.0782 8.97619 63.2541 9.54273 63.6448 9.91391L90.0767 36.3458C90.3893 36.6584 90.8191 36.8342 91.2489 36.8342C91.3465 36.8342 91.4442 36.8342 91.5419 36.8147C92.0694 36.717 92.5382 36.3654 92.7531 35.877C101.134 17.7282 99.9618 2.25588 99.9228 1.61119ZM90.7214 32.3019L67.7082 9.28876C81.0121 3.68199 92.6554 3.29127 96.6407 3.34988C96.7189 7.35472 96.3477 18.959 90.7214 32.3019Z" fill="#3EDA8E"/>
<path d="M73.5887 26.4238C67.9819 20.8171 58.8587 20.8171 53.252 26.4238C47.6452 32.0306 47.6452 41.1538 53.252 46.7606C56.0456 49.5737 59.7378 50.9608 63.4106 50.9608C67.0833 50.9608 70.7756 49.5542 73.5692 46.7606C79.1955 41.1343 79.1955 32.0111 73.5887 26.4238ZM71.2444 44.3968C66.9465 48.6946 59.9332 48.6946 55.6353 44.3968C51.3374 40.0989 51.3374 33.0855 55.6353 28.7877C57.7843 26.6387 60.6169 25.5643 63.4496 25.5643C66.2823 25.5643 69.115 26.6387 71.264 28.7877C75.5423 33.0855 75.5423 40.0793 71.2444 44.3968Z" fill="#3EDA8E"/>
<path d="M66.7517 39.9011C64.9153 41.7374 61.9459 41.7374 60.129 39.9011C58.2927 38.0647 58.2927 35.0953 60.129 33.2784C61.9654 31.4421 64.9348 31.4421 66.7517 33.2784C67.3963 33.9231 68.4513 33.9231 69.1155 33.2784C69.7602 32.6338 69.7602 31.5788 69.1155 30.9146C65.9898 27.7889 60.8909 27.7889 57.7652 30.9146C54.6395 34.0403 54.6395 39.1392 57.7652 42.2649C59.3281 43.8278 61.3793 44.6092 63.4306 44.6092C65.4818 44.6092 67.5331 43.8278 69.0959 42.2649C69.7406 41.6202 69.7406 40.5653 69.0959 39.9011C68.4513 39.2369 67.3963 39.2369 66.7517 39.9011Z" fill="#3EDA8E"/>
</svg>
