<svg width="165" height="27" viewBox="0 0 165 27" fill="none" xmlns="http://www.w3.org/2000/svg">
<path d="M15.2797 17.0472V25.9297H12.2689V17.2278C12.2689 14.2308 10.6121 12.5157 7.99318 12.5157C6.33634 12.5157 4.64386 13.4545 3.34333 15.1335V25.9297H0.296875V2.0625H3.34333V11.8116C4.73294 10.4937 6.53231 9.7354 8.5811 9.7354C12.5896 9.71735 15.2797 12.5879 15.2797 17.0472Z" fill="#B8B8B8"/>
<path d="M33.1671 18.0968C33.1671 22.845 29.5862 26.4377 24.9363 26.4377C20.2152 26.4377 16.6699 22.845 16.6699 18.0968C16.6699 13.3486 20.2152 9.82812 24.9363 9.82812C29.5862 9.82812 33.1671 13.3667 33.1671 18.0968ZM30.085 18.0968C30.085 15.0637 27.9293 12.6445 24.9363 12.6445C21.8899 12.6445 19.7342 15.0637 19.7342 18.0968C19.7342 21.166 21.8899 23.6032 24.9363 23.6032C27.9293 23.6213 30.085 21.166 30.085 18.0968Z" fill="#B8B8B8"/>
<path d="M49.5551 25.9315H46.5087V24.3789C45.119 25.6607 43.3553 26.437 41.2709 26.437C37.2802 26.437 34.5723 23.5845 34.5723 19.071V10.2246H37.6187V18.9085C37.6187 21.9416 39.2756 23.6206 41.8588 23.6206C43.48 23.6206 45.2438 22.7179 46.5087 21.0389V10.2427H49.5551V25.9315Z" fill="#B8B8B8"/>
<path d="M53.7956 20.859C54.1875 22.881 55.684 23.9281 58.2495 23.9281C60.4408 23.9281 61.9373 23.0616 61.9373 21.6353C61.9373 20.534 61.0465 19.8119 59.6391 19.5772L56.1829 18.9633C53.7243 18.5661 51.5686 17.3746 51.5686 14.5943C51.5686 11.5974 54.1519 9.75586 57.9466 9.75586C60.8683 9.75586 64.4136 10.9294 64.7521 14.8651L61.9373 14.9012C61.7057 13.0597 60.1379 12.1751 57.9822 12.1751C55.8265 12.1751 54.5973 13.0778 54.5973 14.3235C54.5973 15.2984 55.2921 16.1108 57.2162 16.4358L60.2092 16.9413C62.5074 17.3385 64.859 18.3856 64.859 21.3826C64.859 24.6142 62.0442 26.4196 58.1604 26.4196C54.3835 26.4196 51.3905 24.7767 50.9629 20.8048L53.7956 20.859Z" fill="#B8B8B8"/>
<path d="M81.9081 18.9082H81.8369H69.2235C69.5263 21.5621 71.3435 23.7105 74.4969 23.7105C76.3141 23.7105 77.6502 22.9703 78.2738 21.7607H81.5518C80.6611 24.559 77.864 26.4366 74.39 26.4366C69.5442 26.4366 66.2305 22.7356 66.2305 18.0958C66.2305 13.3295 69.5442 9.71875 74.3187 9.71875C78.7726 9.71875 81.926 13.0768 81.9438 17.9152C81.9794 18.3666 81.9438 18.6013 81.9081 18.9082ZM69.2947 16.9584H78.8795C78.6123 14.16 76.9198 12.3546 74.3365 12.3546C71.4504 12.3546 69.6867 14.3586 69.2947 16.9584Z" fill="#B8B8B8"/>
<path d="M99.4942 10.2248V25.9317H96.4477V24.5596C95.1115 25.6609 93.33 26.3469 91.2634 26.3469C86.8808 26.3469 83.3711 22.682 83.3711 18.1144C83.3711 13.5106 86.8808 9.8457 91.2634 9.8457C93.3122 9.8457 95.1115 10.5137 96.4477 11.633V10.2609H99.4942V10.2248ZM96.4477 21.1294V15.0452C95.2541 13.2579 93.5616 12.5177 91.7088 12.5177C88.6801 12.5177 86.4354 15.0813 86.4354 18.0963C86.4354 21.0572 88.6979 23.6389 91.7088 23.6389C93.5438 23.6389 95.2362 22.8987 96.4477 21.1294Z" fill="#B8B8B8"/>
<path d="M114.547 10.2247V12.8064H108.383V25.9135H105.337V12.8064H100.883V10.2247H105.337V6.75831C105.337 2.967 107.688 0.439453 111.251 0.439453C112.249 0.439453 113.478 0.56583 114.636 0.908854L114.191 3.59888C113.354 3.4364 112.427 3.29197 111.804 3.29197C109.737 3.29197 108.383 4.66406 108.383 6.75831V10.2247H114.547Z" fill="#B8B8B8"/>
<path d="M119.074 12.5533C120.499 10.8743 122.494 9.86328 124.917 9.86328V12.788C122.423 12.8602 120.463 13.9254 119.074 15.8752V25.9312H116.027V10.2244H119.074V12.5533Z" fill="#B8B8B8"/>
<path d="M126.307 4.3756C126.307 3.27431 127.162 2.42578 128.302 2.42578C129.389 2.42578 130.297 3.27431 130.297 4.3756C130.297 5.47689 129.407 6.32542 128.302 6.32542C127.162 6.32542 126.307 5.49494 126.307 4.3756ZM129.816 10.2251V25.9319H126.805V10.2251H129.816Z" fill="#B8B8B8"/>
<path d="M144.156 20.3892H147.274C146.704 23.9277 143.658 26.3469 139.845 26.3469C135.124 26.3469 131.686 22.7542 131.686 18.1144C131.686 13.4384 135.142 9.8457 139.845 9.8457C143.658 9.8457 146.722 12.2649 147.274 15.8396H144.156C143.729 13.9259 142.072 12.6802 139.845 12.6802C136.727 12.6802 134.732 15.0994 134.732 18.1324C134.732 21.1294 136.727 23.5486 139.845 23.5486C142.054 23.5125 143.711 22.2668 144.156 20.3892Z" fill="#B8B8B8"/>
<path d="M164.789 10.2248V25.9317H161.743V24.5596C160.406 25.6609 158.625 26.3469 156.558 26.3469C152.176 26.3469 148.666 22.682 148.666 18.1144C148.666 13.5106 152.176 9.8457 156.558 9.8457C158.607 9.8457 160.406 10.5137 161.743 11.633V10.2609H164.789V10.2248ZM161.743 21.1294V15.0452C160.549 13.2579 158.856 12.5177 157.004 12.5177C153.975 12.5177 151.73 15.0813 151.73 18.0963C151.73 21.0572 153.993 23.6389 157.004 23.6389C158.856 23.6389 160.549 22.8987 161.743 21.1294Z" fill="#B8B8B8"/>
</svg>
