<svg width="135" height="115" viewBox="0 0 135 115" fill="none" xmlns="http://www.w3.org/2000/svg">
<path d="M0 115C15.9739 91.8967 31.8659 68.9293 47.8125 45.826C50.7342 48.9246 53.5194 51.8601 56.4138 54.9043C56.7142 54.5238 56.96 54.1976 57.1784 53.8986C59.5813 50.3108 62.0115 46.7502 64.3325 43.1352C64.7421 42.51 65.0152 41.6403 65.0152 40.8792C65.0698 27.7511 65.0425 14.623 65.0425 1.46774C65.0425 1.00567 65.0425 0.570787 65.0425 0C66.4078 0 67.6911 0 69.0564 0C69.0837 0.434885 69.193 0.84259 69.111 1.22312C68.6195 3.47908 69.7664 4.51194 71.7324 5.49043C77.9854 8.61617 84.1292 11.9322 90.5188 15.3025C89.9727 15.6287 89.5904 15.8733 89.1535 16.0908C82.8732 19.3796 76.6201 22.6956 70.3125 25.93C69.3568 26.4193 69.0564 26.9901 69.0837 28.0229C69.1384 32.3718 69.111 36.7206 69.1384 41.0695C69.1384 41.6403 69.2203 42.2926 69.5206 42.7275C72.1966 46.8317 74.9545 50.8816 77.6578 54.9586C77.7397 55.0945 77.9035 55.2033 78.0947 55.4207C81.0983 52.2678 84.0473 49.142 87.1602 45.826C103.107 68.875 118.999 91.8695 135 115C89.9727 115 45.1092 115 0 115ZM67.0904 46.4512C52.6456 68.0596 38.3647 89.4505 23.9745 110.977C52.8368 110.977 81.3987 110.977 110.206 110.977C95.7888 89.4233 81.5079 68.0324 67.0904 46.4512ZM127.354 111.059C113.701 91.2987 100.24 71.8376 86.696 52.2678C84.5115 54.5781 82.4636 56.7525 80.3884 58.9541C80.7979 59.5793 81.1529 60.1501 81.5352 60.6937C85.5219 66.6462 89.4812 72.5987 93.4678 78.5512C100.458 89.0156 107.448 99.5072 114.466 109.972C114.766 110.407 115.285 110.977 115.722 111.004C119.463 111.086 123.231 111.059 127.354 111.059ZM7.67294 111.059C11.2227 111.059 14.3902 111.004 17.585 111.086C18.6772 111.113 19.2779 110.706 19.8786 109.836C28.1523 97.3871 36.4806 84.9657 44.7816 72.5171C47.8944 67.8421 51.0073 63.1671 54.1748 58.4377C52.236 56.372 50.3246 54.3607 48.3313 52.2678C34.7603 71.892 21.2985 91.3531 7.67294 111.059ZM81.8629 15.3569C77.5212 13.0737 73.4527 10.9537 69.2203 8.75207C69.2203 13.264 69.2203 17.5313 69.2203 22.0161C73.4254 19.7873 77.4939 17.64 81.8629 15.3569Z" fill="#041721"/>
<path d="M67 46C81.3787 67.7397 95.6213 89.2877 110 111C81.2698 111 52.7847 111 24 111C38.3515 89.3151 52.594 67.7671 67 46Z" fill="#3EDA8E"/>
<path d="M127 110.996C122.901 110.996 119.13 111.023 115.359 110.941C114.922 110.941 114.403 110.341 114.102 109.905C107.08 99.4038 100.084 88.903 93.089 78.3748C89.0994 72.4016 85.1372 66.4284 81.1477 60.4552C80.7651 59.8824 80.4099 59.3369 80 58.7096C82.0767 56.5004 84.1262 54.3184 86.3122 52C99.8657 71.6379 113.31 91.1668 127 110.996Z" fill="white"/>
<path d="M8 110.971C21.4786 91.2052 34.7951 71.6844 48.2196 52C50.1644 54.0993 52.0552 56.1168 54 58.1889C50.8667 62.9328 47.7874 67.6221 44.7082 72.3115C36.4968 84.771 28.2584 97.2578 20.074 109.745C19.4797 110.617 18.9125 111.026 17.8051 110.999C14.6447 110.917 11.5115 110.971 8 110.971Z" fill="white"/>
<path d="M82 15C77.5356 17.4098 73.3521 19.6762 69 22C69 17.2951 69 12.7623 69 8C73.324 10.3525 77.5076 12.5902 82 15Z" fill="#3EDA8E"/>
</svg>
