<svg width="104" height="100" viewBox="0 0 104 100" fill="none" xmlns="http://www.w3.org/2000/svg">
<path d="M21.0938 3.90625H82.8122V72.656H21.0938V3.90625Z" fill="#3EDA8E"/>
<path fill-rule="evenodd" clip-rule="evenodd" d="M0 0H103.125V4.07537H93.5113V74.5211H103.125V78.5964H66.518L74.2347 98.5292L70.431 99.9996L65.9203 88.3482H42.7392L38.2285 99.9996L34.4248 98.5292L42.1415 78.5964H0V74.5211H15.1482V4.07537H0V0ZM19.2266 4.07537V74.5211H89.4329V4.07537H19.2266ZM46.5144 78.5964L44.3169 84.2729H64.3426L62.1451 78.5964H46.5144ZM80.5448 18.2294L57.1177 56.9337L41.9793 36.3835L31.7328 60.1891L27.9863 58.5789L41.0447 28.2403L56.7854 49.6081L77.0551 16.1202L80.5448 18.2294Z" fill="#041721"/>
</svg>
