<svg width="85" height="85" viewBox="0 0 85 85" fill="none" xmlns="http://www.w3.org/2000/svg">
<path d="M57.6333 83.4561C57.3488 84.5595 56.7442 85.0934 55.9085 84.9866C55.0372 84.8798 54.5749 84.2392 54.5749 83.1002C54.5749 82.068 54.5571 81.0359 54.5749 79.9859C54.5927 79.541 54.4504 79.363 53.9703 79.363C53.2591 79.3808 52.619 79.3452 52.0855 80.0037C51.6054 80.591 50.8586 80.7867 50.0762 80.7689C48.7782 80.7511 47.4802 80.7689 46.1644 80.7689C45.9154 80.7689 45.6309 80.6621 45.5065 81.0181C45.1686 81.9257 44.4218 82.0502 43.5505 82.0502C39.0874 82.0324 34.6243 82.0324 30.1434 82.0324C29.9301 82.0324 29.7345 82.0502 29.5211 82.068C29.041 82.0502 28.4542 81.7121 28.1697 82.424C27.7252 83.5095 26.9072 84.2214 25.8582 84.7019C24.0089 85.2714 22.3552 85.0044 20.9861 83.5273C20.7371 83.2604 20.5416 83.2604 20.2215 83.3494C18.5323 83.8477 17.0031 83.5807 15.6873 82.3528C15.3316 82.0147 14.9582 82.0324 14.5315 82.0324C10.0328 82.0146 5.53416 81.9969 1.05328 81.9791C0.875467 81.8545 0.697654 81.7477 0.519841 81.6231C-0.440347 80.6799 0.146434 79.0783 1.58672 78.9359C3.20481 78.9359 4.80513 78.9359 6.6366 78.9359C4.76957 77.7792 3.95163 76.4978 3.54266 74.4513C2.97366 71.6217 2.77806 68.7743 2.7425 65.9091C2.70694 63.5244 3.00922 61.1931 4.27169 59.0754C4.50285 58.6839 4.75178 58.2746 5.05407 57.7763C3.82716 57.7763 2.72472 57.7763 1.6045 57.7763C0.199778 57.3847 -0.351441 56.2992 0.377591 55.3204C0.697654 54.8755 1.14219 54.6975 1.67562 54.6975C2.77806 54.7153 3.86272 54.6619 4.96516 54.7153C5.56972 54.7331 5.71197 54.5374 5.71197 53.9501C5.71197 53.2382 5.64085 52.6688 5.03628 52.1527C4.41394 51.6366 4.21835 50.8713 4.21835 50.0705C4.21835 49.1273 4.21835 48.1663 4.21835 47.2231C4.21835 46.4579 4.37838 45.6571 3.40041 45.2299C2.99144 45.052 2.93809 44.5003 2.93809 44.0376C2.95588 39.1259 2.95587 34.1963 2.99144 29.2846C2.99144 28.8219 2.88475 28.5727 2.42244 28.3414C-0.298097 26.9533 -0.831536 23.4118 1.35556 21.2229C1.67562 20.9026 1.71119 20.6534 1.6045 20.2441C1.17775 18.6247 1.46225 17.1298 2.58247 15.8485C2.83141 15.5637 2.97366 15.2968 2.97366 14.9053C2.95588 10.6698 2.97366 6.43428 2.97366 2.19879C2.97366 0.953056 3.34706 0.330189 4.23613 0.152227C5.07185 -0.00793814 5.69419 0.525947 6.0676 1.6827C6.0676 3.28436 6.0676 4.88601 6.0676 6.71902C7.02779 4.76144 8.57476 4.03179 10.3351 3.65807C13.269 3.03521 16.2563 2.82165 19.2435 2.80386C21.2528 2.80386 23.2621 2.99962 25.1113 3.94281C25.787 4.28094 26.4449 4.67246 27.1917 5.09957C27.1917 3.88943 27.1917 2.78606 27.1917 1.6649C27.2984 0.365782 28.6498 -0.257085 29.5744 0.365782C30.0545 0.686113 30.2679 1.13102 30.2679 1.71829C30.2501 2.71488 30.2501 3.72926 30.2679 4.72585C30.2857 5.04618 30.0545 5.58006 30.4635 5.66904C31.0147 5.79362 31.7615 6.02497 32.1349 5.54447C33.0418 4.40551 34.2331 4.22755 35.5312 4.20976C35.8512 4.33433 36.1535 4.33433 36.4736 4.20976C37.3626 4.26314 38.2517 4.29874 39.1408 4.19196C39.2652 4.17416 39.3008 4.08518 39.3008 3.97841C39.692 3.23097 40.3143 3.01741 41.1323 3.01741C45.9332 3.03521 50.7341 3.01741 55.5351 3.03521C56.0685 3.03521 56.353 2.92843 56.6198 2.39455C58.0067 -0.346065 61.4918 -0.826562 63.6078 1.43355C63.9279 1.77168 64.159 1.80727 64.5858 1.6827C66.2394 1.2022 67.7508 1.48694 69.0666 2.6259C69.3156 2.85725 69.5645 3.01741 69.9201 3.01741C74.1876 3.01741 78.4374 3.01741 82.7049 3.01741C83.9851 3.01741 84.643 3.44452 84.7497 4.36992C84.8564 5.18855 84.323 5.75802 83.2028 6.11395C81.638 6.11395 80.0732 6.11395 78.3485 6.11395C80.1622 7.43087 80.8556 8.53423 81.2646 10.5808C81.5491 12.0045 81.7625 13.4282 81.8692 14.8875C82.0648 17.4857 82.2603 20.0839 81.7625 22.6644C81.4424 24.3016 80.7134 25.7787 79.6998 27.2558C80.9801 27.2558 82.0825 27.2558 83.2028 27.2558C84.4652 27.5761 84.8386 28.11 84.6608 29.3024C84.4652 29.7473 84.1096 30.0142 83.7362 30.2812C82.4204 30.299 81.1046 30.299 79.771 30.3345C79.5042 30.3345 79.1131 30.2278 79.1308 30.6905C79.1486 31.3667 78.9352 32.0964 79.6821 32.5947C79.9843 32.7904 80.1444 33.1819 80.3577 33.5023C80.4467 33.8048 80.5178 34.1073 80.6067 34.4277C80.6067 35.887 80.6067 37.3284 80.6245 38.7877C80.6245 39.0547 80.6067 39.3038 80.9268 39.4462C81.7269 39.8021 81.8336 40.514 81.8336 41.297C81.8158 46.0308 81.8336 50.7824 81.8158 55.5161C81.8158 56.139 81.9225 56.4949 82.5626 56.8153C85.1765 58.1144 85.6921 61.5846 83.5939 63.6312C83.1672 64.0405 83.0072 64.3608 83.2028 64.9659C83.6295 66.3362 83.4339 67.7243 82.5093 68.8277C81.8692 69.5929 81.7625 70.3937 81.7803 71.2836C81.798 75.0208 81.8158 78.7402 81.8336 82.4774C81.8336 82.7443 81.8336 83.0112 81.8336 83.2782C81.7803 84.2036 81.3002 84.7909 80.5 84.8798C79.771 84.9688 79.1486 84.5239 78.8641 83.6875C78.8286 83.5807 78.793 83.4561 78.7574 83.3494C78.7574 81.8011 78.7574 80.235 78.7574 78.6156C76.8548 80.7333 75.9836 81.1604 73.1919 81.5875C71.236 81.8901 69.2622 82.0502 67.2707 82.157C63.9279 82.3528 60.7094 82.068 57.8644 80.0393C57.8111 80.0037 57.7044 80.0393 57.6155 80.0393C57.6333 81.2672 57.6333 82.3706 57.6333 83.4561ZM50.094 76.1775C50.094 75.875 50.094 75.5724 50.094 75.2521C50.094 74.3801 50.094 73.4903 50.094 72.6183C50.094 72.3157 50.094 72.0132 50.094 71.6929C50.094 70.6429 50.094 69.5751 50.094 68.5251C50.094 68.4006 50.094 68.276 50.094 68.1336C50.1118 65.2329 50.094 62.3321 50.1296 59.4313C50.1296 58.8974 49.9162 58.7906 49.4361 58.7906C48.4581 58.8084 47.4802 58.8262 46.5022 58.7728C45.8621 58.7373 45.6487 58.9152 45.6487 59.5915C45.6665 65.0015 45.6309 70.4115 45.6309 75.8038C45.6309 77.7792 45.6487 77.7792 47.6402 77.708C47.8891 77.708 48.1203 77.708 48.3692 77.708C50.1651 77.797 50.1651 77.797 50.094 76.1775ZM64.7991 6.73681C64.6924 7.03935 64.6924 7.35968 64.7813 7.66222C64.7636 9.05032 64.7814 10.4562 64.7458 11.8443C64.7102 13.0367 63.5544 13.7307 62.5587 13.179C61.9186 12.8231 61.723 12.2358 61.723 11.5418C61.723 9.22828 61.723 6.91478 61.7052 4.60127C61.7052 3.56909 60.9406 2.99962 60.0871 3.35554C59.4114 3.62248 59.3759 4.20976 59.3403 4.81483C59.0914 8.97913 59.4292 13.1612 59.0558 17.3433C58.9491 18.4645 58.4512 19.123 57.5088 19.123C56.5664 19.123 56.0152 18.4645 56.0152 17.3077C56.0152 15.1366 56.033 12.9833 56.033 10.8121C56.033 10.5986 56.1752 10.3494 55.8374 10.1359C55.1973 11.3994 55.0017 12.7697 54.6994 14.1044C53.9703 17.3077 54.486 20.0839 57.0287 22.4508C58.7179 24.0169 60.336 25.6719 62.0786 27.2024C62.6298 27.6829 62.8076 28.288 62.5587 28.9642C62.3453 29.5693 61.8652 29.9608 61.1895 29.9074C59.9626 29.8007 60.6205 30.7083 60.4961 31.1532C60.3183 31.7938 60.7272 31.8472 61.2429 31.8472C65.4748 31.8294 69.7245 31.8472 73.9565 31.8472C76.1614 31.8472 76.2325 31.8472 76.1258 29.6405C76.0369 27.9855 76.3747 26.5796 77.4772 25.2982C78.224 24.444 78.6152 23.3584 78.8286 22.2373C79.2553 19.9416 79.0597 17.6281 78.8997 15.3146C78.793 13.8375 78.5974 12.3604 78.2596 10.9189C78.0995 10.2249 77.8862 9.51302 77.1927 9.15709C76.7304 8.90795 76.2858 8.81897 76.3214 9.63759C76.3747 10.8299 76.3392 12.0045 76.3392 13.1968C76.3392 13.535 76.3392 13.8553 76.1436 14.14C75.7346 14.7273 75.2012 15.0654 74.4721 14.8519C73.7076 14.6205 73.3164 14.0688 73.2986 13.268C73.2986 11.5418 73.2986 9.83335 73.2986 8.10712C73.2986 6.8258 72.6585 6.22073 71.4138 6.13174C70.7381 6.09615 70.5603 6.3275 70.578 6.98596C70.6314 8.72999 70.6136 10.4918 70.5958 12.2358C70.5958 13.3392 69.9913 14.0332 69.0666 14.0332C68.1242 14.051 67.573 13.4104 67.5552 12.2358C67.5375 10.2783 67.5552 8.32067 67.5552 6.36309C67.5552 5.93599 67.5375 5.52667 67.2885 5.17075C67.2352 4.9572 67.0929 4.83262 66.8795 4.77923C65.3326 4.22755 64.4613 5.08177 64.7991 6.73681ZM32.6328 28.6083C32.455 28.377 32.2594 28.1456 32.0994 27.9143C31.6904 27.2914 31.0858 27.6117 30.5702 27.6295C30.019 27.6473 30.2857 28.1812 30.2679 28.4837C30.2323 29.1778 30.2679 29.8896 30.2679 30.5837C30.1968 30.8862 30.1968 31.2066 30.2679 31.5091C30.2679 35.6556 30.2501 39.8021 30.2501 43.9486C30.2501 44.4291 30.3213 45.0164 29.8767 45.2477C29.0054 45.7282 29.1655 46.4935 29.1477 47.2409C29.1477 48.0951 29.1299 48.9671 29.1655 49.8214C29.2188 51.0671 28.8276 52.0993 27.743 52.7933C27.0495 53.256 27.3696 53.9323 27.4229 54.5018C27.4585 55.0534 28.0452 54.7865 28.3831 54.7865C33.4685 54.8043 38.554 54.8043 43.6572 54.8043C44.2795 54.8043 44.9019 54.8221 45.2397 55.3916C45.5242 55.8721 45.8799 55.8721 46.3422 55.8899C48.0136 55.961 49.7206 55.6585 51.3743 56.1034C51.5521 56.2102 51.7299 56.317 51.9077 56.4415C52.1389 56.6907 52.4056 56.922 52.5834 57.2068C52.8146 57.5627 53.0635 57.7585 53.4902 57.6339C54.6105 57.7407 54.6105 57.7407 54.5216 56.6017C54.5216 55.7297 54.5216 54.8399 54.5216 53.9679C54.5216 53.6653 54.5216 53.3628 54.5216 53.0425C54.5216 49.6078 54.5216 46.1731 54.5216 42.7563C54.5216 42.6317 54.5216 42.5071 54.5216 42.3648C54.6638 41.5995 54.2015 40.5851 54.895 40.0869C55.7485 39.464 55.6062 38.6988 55.6062 37.9157C55.6062 36.9725 55.624 36.0115 55.6062 35.0683C55.5707 33.9472 55.9974 33.0218 56.9398 32.4345C57.6688 31.9718 57.4021 31.3133 57.3488 30.7795C57.2777 30.2456 56.7087 30.5125 56.3886 30.5125C51.3032 30.4947 46.2177 30.4947 41.1323 30.4947C40.6166 30.4947 40.012 30.5481 39.7453 30.0854C39.3186 29.3202 38.6607 29.4091 37.985 29.4269C37.007 29.4269 36.029 29.4091 35.0511 29.4269C34.3576 29.4447 33.6997 29.3202 33.0773 29.0176C32.9529 28.8575 32.7928 28.7329 32.6328 28.6083ZM5.872 19.9772C5.99647 20.2085 6.20985 20.1373 6.40544 20.1017C7.29451 20.2797 8.16579 20.2619 9.07263 20.2085C9.37491 20.2085 9.6772 20.2085 9.99726 20.2085C10.5663 20.2085 11.1175 20.2085 11.6865 20.2441C12.5933 20.2797 13.1623 20.8314 13.1979 21.6678C13.2334 22.522 12.6644 23.2517 11.7576 23.2695C9.44604 23.3051 7.13447 23.3051 4.82291 23.2517C3.68491 23.2161 3.15147 23.483 3.09813 24.355C3.06256 25.1915 3.56044 25.6542 4.60953 25.672C6.56547 25.7253 8.52141 25.7787 10.4774 25.8143C12.7889 25.8677 15.1005 25.9033 17.412 25.9745C18.3545 26.0101 19.0301 26.7041 18.9946 27.5583C18.959 28.3948 18.3367 28.982 17.412 29.0176C17.0564 29.0354 16.7008 29.0176 16.3452 29.0176C14.2648 29.0176 12.1666 29.0176 10.0328 29.0176C10.2106 29.4091 10.5307 29.4091 10.7974 29.5159C11.8465 29.9252 12.9667 30.121 14.0514 30.3701C17.2165 31.1176 19.9548 30.5303 22.2841 28.0566C23.8666 26.366 25.5025 24.7465 27.0317 23.0025C27.5118 22.4686 28.0986 22.2195 28.7743 22.4686C29.3788 22.6822 29.7878 23.1449 29.7345 23.8211C29.6456 25.1025 30.588 24.4084 31.0681 24.533C31.8149 24.711 31.6548 24.1237 31.6548 23.6966C31.6548 19.4789 31.6548 15.279 31.6548 11.0613C31.6548 8.85456 31.6548 8.78337 29.45 8.89015C27.7607 8.97913 26.3382 8.62321 25.0402 7.51985C23.9911 6.63004 22.6575 6.20293 21.2884 6.04276C19.2257 5.81141 17.1453 5.93599 15.0827 6.09615C13.6069 6.22072 12.131 6.39869 10.7085 6.75461C10.0506 6.91478 9.3927 7.16392 9.03707 7.84018C8.77035 8.35627 8.75257 8.72999 9.53495 8.69439C10.6907 8.6588 11.8465 8.6766 13.0023 8.6766C14.1225 8.6766 14.7804 9.24608 14.7804 10.2071C14.7626 11.1503 14.1047 11.7019 12.9667 11.7197C11.3131 11.7197 9.64163 11.7197 7.98798 11.7197C6.67216 11.7197 6.03204 12.3782 5.99647 13.6773C5.97869 14.229 6.12094 14.4604 6.74329 14.4426C8.48585 14.407 10.2462 14.407 11.9888 14.4248C13.0912 14.4248 13.7669 14.9586 13.8558 15.8129C13.9447 16.6671 13.3935 17.2722 12.291 17.5213C11.971 17.4145 11.6687 17.4145 11.3486 17.5035C10.424 17.5035 9.4816 17.5213 8.55698 17.5213C8.30804 17.4145 8.0591 17.4145 7.79238 17.5035C7.08113 17.4857 6.36988 17.4323 5.67641 17.4857C4.80513 17.5569 4.30725 18.3577 4.50285 19.2119C4.68066 19.9594 5.10741 20.2975 5.872 19.9772ZM78.9352 67.6887C79.9843 67.6175 80.2333 67.3684 80.34 66.354C80.3577 65.5888 80.0555 65.1083 79.2197 65.0727C77.8328 65.0371 76.4459 64.8769 75.0589 64.9837C74.6322 64.9837 74.2054 64.9837 73.7965 64.9837C73.7431 64.9837 73.672 64.9659 73.6186 64.9659C72.285 64.9303 71.6627 64.4498 71.6627 63.4354C71.6627 62.4566 72.3562 61.9228 73.6364 61.9228C75.8235 61.9228 78.0284 61.9228 80.2155 61.9228C81.2468 61.9228 81.7269 61.549 81.7447 60.7482C81.7803 59.9118 81.2468 59.4847 80.2155 59.4313C76.0369 59.2355 71.8583 59.2533 67.6797 59.2178C66.5595 59.2 65.8838 58.6305 65.866 57.7051C65.8482 56.7975 66.5417 56.1924 67.6619 56.1924C69.8312 56.1924 71.9828 56.228 74.1521 56.228C74.3832 56.228 74.6677 56.3704 74.8633 56.0144C74.6677 55.9077 74.4899 55.7831 74.3121 55.7297C72.2317 54.9823 70.0802 54.5907 67.8931 54.5018C66.5595 54.4484 65.4037 54.8221 64.3546 55.6585C62.9143 56.8153 61.5629 58.061 60.3183 59.4135C59.4292 60.3745 58.5757 61.3533 57.6866 62.3143C57.2421 62.7948 56.6909 62.9727 56.0685 62.7414C55.464 62.5278 55.055 62.0651 55.0906 61.4067C55.1972 60.0898 54.2371 60.8372 53.757 60.7126C53.0279 60.5169 53.1346 61.0863 53.1346 61.5135C53.1346 65.7489 53.1346 70.0022 53.1346 74.2377C53.1346 76.3733 53.1346 76.4622 55.3039 76.3555C56.9932 76.2665 58.3979 76.6402 59.7137 77.7436C60.8873 78.7224 62.3631 79.1495 63.9101 79.2562C66.3817 79.4342 68.8177 79.274 71.2715 78.9715C72.4095 78.8291 73.5653 78.7224 74.6677 78.313C75.2012 78.0995 75.7168 77.8503 75.9124 77.2631C76.0725 76.7826 76.0547 76.48 75.379 76.5156C74.2232 76.569 73.0674 76.5512 71.9116 76.5512C70.7736 76.5512 70.098 75.9995 70.0624 75.0919C70.0268 74.1487 70.7559 73.5259 71.9116 73.5259C73.5653 73.5259 75.2367 73.5259 76.8904 73.5081C78.1706 73.4903 78.7574 72.8674 78.8108 71.5861C78.8463 70.9988 78.7041 70.7319 78.0462 70.7497C76.3036 70.8031 74.5433 70.7497 72.8007 70.7675C71.9472 70.7675 71.2537 70.5539 70.987 69.6641C70.7381 68.8277 71.1293 68.2404 71.8227 67.7955C72.125 67.7599 72.4273 67.7243 72.7474 67.6709C74.81 67.6887 76.8726 67.6887 78.9352 67.6887ZM25.6803 72.1022C25.787 71.7819 25.787 71.4793 25.6803 71.159C25.7337 70.0912 25.787 69.0234 25.8048 67.9735C25.8404 66.8167 26.4272 66.0871 27.3696 66.0871C28.2586 66.0871 28.8632 66.7989 28.8632 67.9201C28.8454 69.9133 28.7743 71.8886 28.7387 73.8818C28.7387 74.2733 28.5965 74.6826 28.8098 75.0741C29.201 74.8784 29.2544 74.5403 29.3611 74.2377C29.9656 72.4581 30.2857 70.6429 30.4635 68.7743C30.6413 66.8879 30.1434 65.2862 28.8632 63.8803C27.903 62.8304 26.9784 61.7448 25.9293 60.7838C24.8802 59.8228 23.8311 58.8618 22.7642 57.9186C22.2663 57.4737 22.1063 56.922 22.3019 56.2992C22.4797 55.7119 22.942 55.2136 23.511 55.2848C24.5423 55.4272 24.3467 54.8399 24.4179 54.2348C24.489 53.4162 24.2223 53.2026 23.4043 53.2204C19.3146 53.256 15.225 53.2382 11.1353 53.2382C10.3707 53.2382 9.37491 52.9179 8.9126 53.3628C8.39694 53.8611 8.69923 54.8933 8.77035 55.6585C8.9126 57.2424 8.53919 58.6127 7.47232 59.8406C6.70772 60.7126 6.33432 61.8338 6.0676 62.9727C5.7831 64.1829 5.88979 65.393 5.872 66.6032C5.83644 69.1302 6.12094 71.6395 6.61882 74.1132C6.76107 74.825 6.99222 75.5013 7.57901 75.964C7.82794 76.1597 8.11244 76.2843 8.39694 76.1419C8.66366 76.0173 8.53919 75.7148 8.53919 75.5013C8.55698 74.3801 8.53919 73.2411 8.53919 72.12C8.53919 70.9632 9.09041 70.3048 10.015 70.3048C10.9574 70.287 11.562 71.0166 11.562 72.1734C11.562 73.8284 11.562 75.5013 11.5798 77.1563C11.5976 78.4554 12.2733 79.0605 13.5891 79.0605C14.1225 79.0605 14.3181 78.9181 14.3003 78.3486C14.2648 76.569 14.2825 74.7894 14.2825 73.0098C14.2825 71.8174 14.8693 71.1412 15.8295 71.159C16.8075 71.1768 17.3231 71.8174 17.3231 73.0632C17.3231 75.1097 17.3054 77.1563 17.3054 79.2029C17.3054 79.9859 17.8921 80.5732 18.6923 80.591C19.528 80.6088 19.8659 80.235 19.9548 79.3452C20.1326 77.4766 20.0792 75.608 20.0792 73.7394C20.0792 72.6005 20.5238 71.9598 21.4128 71.8708C22.3375 71.7641 22.9242 72.3157 23.1376 73.4725C23.1376 73.7216 23.1376 73.953 23.1376 74.2021C23.0487 76.3555 23.191 78.5266 23.0309 80.6799C22.9776 81.4808 23.4577 81.9257 24.2045 81.9613C24.9335 81.9791 25.467 81.5519 25.4847 80.7867C25.5737 77.9037 25.6092 75.003 25.6803 72.1022ZM57.4021 27.3982C57.2777 26.8999 56.9754 26.7219 56.762 26.5084C55.6418 25.3694 54.5216 24.2305 53.4902 23.0025C52.0677 21.3119 51.2142 19.4611 51.3209 17.1654C51.4276 14.8341 51.8188 12.5918 52.4412 10.3494C52.9035 8.6766 53.8281 7.51985 55.4818 6.95037C55.7307 6.86139 56.0508 6.8258 56.0152 6.46987C55.9441 6.00717 55.5529 6.20293 55.3039 6.20293C51.2676 6.18513 47.249 6.20293 43.2127 6.16734C42.4659 6.16734 42.2703 6.36309 42.2703 7.11053C42.3058 13.6061 42.3058 20.1017 42.2703 26.5796C42.2703 27.2558 42.4481 27.416 43.106 27.416C46.6978 27.3804 50.2718 27.3982 53.8637 27.3982C55.0372 27.3982 56.1752 27.3982 57.4021 27.3982ZM57.7222 57.5627C58.1134 57.5449 58.2556 57.2246 58.469 56.9932C59.8559 55.6051 61.2429 54.2526 62.8254 53.0781C64.1768 52.0637 65.6526 51.5298 67.3596 51.5476C69.8312 51.5654 72.2317 51.9925 74.6144 52.6332C76.3392 53.0959 77.5305 54.0213 78.0462 55.7475C78.1351 56.0322 78.2062 56.3882 78.5974 56.2992C78.953 56.2102 78.793 55.8543 78.793 55.6051C78.793 51.512 78.7752 47.4189 78.8108 43.3258C78.8108 42.6495 78.633 42.4715 77.9751 42.4893C71.4849 42.5071 64.9947 42.5249 58.5046 42.4893C57.74 42.4893 57.5799 42.7385 57.5977 43.4503C57.6333 47.8638 57.6155 52.295 57.6155 56.7085C57.6155 56.9754 57.5266 57.278 57.7222 57.5627ZM27.2629 57.8119C28.7921 59.3779 30.1257 60.766 31.3703 62.2253C32.8995 64.0227 33.6463 66.0337 33.4685 68.4362C33.3263 70.5717 32.9173 72.6361 32.4017 74.7182C31.9571 76.5334 30.9614 77.7258 29.1833 78.2597C28.9343 78.3308 28.6143 78.3486 28.6498 78.7224C28.7032 79.2029 29.1121 79.0071 29.3433 79.0071C33.4863 79.0249 37.6294 79.0071 41.7724 79.0249C42.3592 79.0249 42.5192 78.8469 42.5192 78.2775C42.5014 71.7285 42.4836 65.1795 42.5192 58.6305C42.5192 57.8652 42.2169 57.7763 41.5946 57.7763C37.3626 57.7941 33.1307 57.7941 28.8987 57.7941C28.4542 57.8119 27.9741 57.8119 27.2629 57.8119ZM27.1028 27.6295C26.7117 27.7541 26.5338 28.0388 26.3205 28.2702C25.2002 29.3736 24.08 30.4591 22.8887 31.4913C21.0572 33.0574 18.9768 34.0006 16.5763 33.787C14.2825 33.5912 12.0243 33.1641 9.83723 32.4167C8.36138 31.9184 7.36563 31.082 6.88554 29.6227C6.79663 29.338 6.76107 28.8931 6.28097 29.0176C5.872 29.1244 6.04982 29.5159 6.04982 29.7829C6.03204 33.698 6.0676 37.6132 6.03204 41.5283C6.01425 42.3648 6.19207 42.6317 7.08113 42.6317C13.5002 42.5961 19.937 42.5961 26.356 42.6139C27.0495 42.6139 27.2629 42.4537 27.2451 41.7419C27.2095 37.3284 27.2273 32.915 27.2273 28.4837C27.2273 28.199 27.2984 27.9321 27.1028 27.6295ZM68.1242 34.8726C68.1242 34.926 68.1242 34.9616 68.1242 35.0149C65.2259 35.0149 62.3098 35.0327 59.4114 34.9971C58.7891 34.9971 58.5935 35.1751 58.629 35.798C58.6824 36.7768 58.6824 37.7556 58.6646 38.7343C58.6468 39.2504 58.8246 39.3928 59.3225 39.3928C65.1903 39.375 71.0581 39.375 76.926 39.3928C77.4416 39.3928 77.5839 39.2148 77.5661 38.7343C77.5305 37.7022 77.5127 36.6522 77.5661 35.62C77.6017 34.9616 77.3527 34.8548 76.7482 34.8726C73.8676 34.9082 70.987 34.8726 68.1242 34.8726ZM16.7008 50.3375C19.6347 50.3375 22.5686 50.3197 25.5025 50.3552C26.0715 50.3552 26.2849 50.2307 26.2493 49.6256C26.196 48.6468 26.2138 47.668 26.2493 46.6892C26.2849 46.0842 26.1071 45.8528 25.467 45.8884C24.08 45.924 22.6753 45.835 21.2706 45.9062C19.3858 46.013 17.4832 45.9952 15.5984 45.9418C13.0379 45.8884 10.4596 45.9952 7.89907 45.7994C7.36563 45.7638 7.24116 45.9774 7.25894 46.4579C7.29451 47.4901 7.31229 48.54 7.25894 49.5722C7.22338 50.2307 7.45454 50.3552 8.0591 50.3552C10.9397 50.3197 13.8202 50.3375 16.7008 50.3375ZM36.8648 7.44866C36.8292 7.44866 36.8114 7.44866 36.7759 7.44866C34.6954 7.46646 34.6777 7.46646 34.6777 9.56641C34.6777 14.9053 34.6954 20.2263 34.6599 25.5652C34.6599 26.2414 34.8377 26.4372 35.4956 26.4016C36.438 26.3482 37.3982 26.3482 38.3406 26.4016C38.9629 26.4372 39.1408 26.2414 39.1408 25.6186C39.1052 22.8602 39.123 20.1017 39.123 17.3433C39.123 14.7985 39.123 12.2358 39.123 9.69098C39.1408 7.43087 39.123 7.43087 36.8648 7.44866Z" fill="#000225"/>
<path d="M1.6047 57.8477C2.70713 57.8477 3.82735 57.8477 5.05426 57.8477C4.75198 58.3637 4.50304 58.7553 4.27189 59.1468C3.00942 61.2645 2.72492 63.5958 2.7427 65.9805C2.77826 68.8457 2.99163 71.7109 3.54285 74.5227C3.95182 76.5692 4.76976 77.8506 6.6368 79.0073C4.82311 79.0073 3.20501 79.0073 1.58691 79.0073C1.6047 71.9422 1.6047 64.8949 1.6047 57.8477Z" fill="#3EDA8E"/>
<path d="M27.1915 1.75391C27.1915 2.85727 27.1915 3.97843 27.1915 5.18857C26.4269 4.76146 25.7868 4.36994 25.1111 4.03182C23.2619 3.08862 21.2526 2.89286 19.2433 2.89286C16.256 2.89286 13.2688 3.10642 10.3349 3.74708C8.57454 4.1208 7.02757 4.85044 6.06738 6.80802C6.06738 4.97501 6.06738 3.37336 6.06738 1.7717C13.1088 1.75391 20.1501 1.75391 27.1915 1.75391Z" fill="#3EDA8E"/>
<path d="M83.2215 27.3801C82.119 27.3801 80.9988 27.3801 79.7186 27.3801C80.7321 25.8853 81.4611 24.426 81.7812 22.7887C82.2791 20.2083 82.0657 17.61 81.8879 15.0118C81.7812 13.5703 81.5678 12.1288 81.2833 10.7051C80.8744 8.65856 80.1809 7.5552 78.3672 6.23828C80.092 6.23828 81.6567 6.23828 83.2215 6.23828C83.2215 13.2678 83.2215 20.3329 83.2215 27.3801Z" fill="#3EDA8E"/>
<path d="M57.6328 83.4562C57.6328 82.3529 57.6328 81.2673 57.6328 80.1639C57.7217 80.1639 57.8284 80.1283 57.8817 80.1639C60.7268 82.1927 63.9452 82.4774 67.288 82.2817C69.2618 82.1571 71.2355 82.0147 73.2092 81.7122C75.9831 81.2673 76.8722 80.858 78.7748 78.7402C78.7748 80.3597 78.7748 81.908 78.7748 83.474C71.7156 83.4562 64.6742 83.4562 57.6328 83.4562Z" fill="#3EDA8E"/>
<path d="M39.3007 4.08398C39.3007 4.19076 39.2651 4.27974 39.1406 4.29754C39.194 4.22635 39.2473 4.15517 39.3007 4.08398Z" fill="#3EDA8E"/>
<path d="M57.4022 27.3985C56.1752 27.3985 55.0195 27.3985 53.8815 27.3985C50.2897 27.3985 46.7156 27.3807 43.1238 27.4163C42.4659 27.4163 42.2881 27.2561 42.2881 26.5799C42.3059 20.0843 42.3059 13.5886 42.2881 7.11084C42.2881 6.3634 42.4837 6.16764 43.2305 6.16764C47.2668 6.20323 51.2854 6.18544 55.3217 6.20323C55.5707 6.20323 55.9797 6.00747 56.033 6.47017C56.0863 6.8261 55.7485 6.87949 55.4996 6.95067C53.8459 7.52015 52.9213 8.6769 52.459 10.3497C51.8366 12.5921 51.4454 14.8344 51.3387 17.1657C51.2321 19.4614 52.0856 21.3122 53.5081 23.0028C54.5394 24.2308 55.6596 25.3697 56.7798 26.5087C56.9932 26.74 57.2777 26.9002 57.4022 27.3985Z" fill="#3EDA8E"/>
<path d="M57.7226 57.5636C57.527 57.2966 57.6159 56.9763 57.6159 56.7094C57.6159 52.2959 57.6336 47.8647 57.5981 43.4512C57.5981 42.7394 57.7403 42.4902 58.5049 42.4902C64.9951 42.5258 71.4853 42.508 77.9754 42.4902C78.6333 42.4902 78.8289 42.6682 78.8111 43.3267C78.7756 47.4198 78.8111 51.5129 78.7934 55.606C78.7934 55.8374 78.9534 56.2111 78.5978 56.3001C78.2066 56.389 78.1354 56.0331 78.0465 55.7484C77.5309 54.0222 76.3395 53.0968 74.6148 52.6341C72.2321 51.9934 69.8316 51.5485 67.36 51.5485C65.653 51.5485 64.1771 52.0646 62.8258 53.079C61.2432 54.2535 59.8563 55.6238 58.4694 56.9941C58.256 57.2077 58.096 57.528 57.7226 57.5636Z" fill="#3EDA8E"/>
<path d="M27.2627 57.8127C27.9739 57.8127 28.4363 57.8127 28.8986 57.8127C33.1305 57.8127 37.3624 57.8127 41.5944 57.7949C42.2345 57.7949 42.5368 57.8839 42.519 58.6491C42.4834 65.1981 42.5012 71.7471 42.519 78.2961C42.519 78.8834 42.3412 79.0435 41.7722 79.0435C37.6292 79.0258 33.4861 79.0257 29.3431 79.0257C29.0942 79.0257 28.6852 79.2215 28.6496 78.741C28.6141 78.3673 28.9341 78.3495 29.1831 78.2783C30.9612 77.7444 31.9569 76.5521 32.4015 74.7369C32.9171 72.6725 33.3261 70.5904 33.4684 68.4548C33.6284 66.0523 32.8994 64.0414 31.3702 62.244C30.1255 60.7669 28.7919 59.3788 27.2627 57.8127Z" fill="#3EDA8E"/>
<path d="M27.1032 27.6289C27.2988 27.9314 27.2277 28.1984 27.2277 28.4475C27.2277 32.861 27.2099 37.2744 27.2455 41.7057C27.2455 42.4175 27.0499 42.5955 26.3564 42.5777C19.9374 42.5599 13.5005 42.5421 7.0815 42.5955C6.19244 42.5955 6.01462 42.3285 6.0324 41.4921C6.08575 37.577 6.05019 33.6618 6.05019 29.7467C6.05019 29.4797 5.87237 29.0882 6.28134 28.9814C6.76144 28.8568 6.797 29.3017 6.88591 29.5865C7.366 31.0636 8.36175 31.9 9.8376 32.3805C12.0425 33.1279 14.3007 33.555 16.5767 33.7508C18.995 33.9643 21.0754 33.0211 22.8891 31.4551C24.0804 30.4407 25.2184 29.3373 26.3208 28.234C26.5342 28.0382 26.712 27.7535 27.1032 27.6289Z" fill="#3EDA8E"/>
<path d="M68.1242 34.8733C71.0048 34.8733 73.8676 34.8911 76.7481 34.8555C77.3527 34.8555 77.6016 34.9444 77.5661 35.6029C77.5127 36.6351 77.5305 37.6851 77.5661 38.7172C77.5839 39.2155 77.4594 39.3935 76.9259 39.3757C71.0581 39.3579 65.1903 39.3579 59.3225 39.3757C58.8246 39.3757 58.6468 39.2333 58.6646 38.7172C58.7001 37.7384 58.6824 36.7597 58.629 35.7809C58.5935 35.158 58.789 34.9622 59.4114 34.98C62.3097 35.0156 65.2259 34.9978 68.1242 34.9978C68.1242 34.98 68.1242 34.9267 68.1242 34.8733ZM76.9259 37.169C76.9793 36.3503 76.3036 35.6029 75.4857 35.5673C74.6499 35.5317 73.9565 36.1724 73.9209 37.0266C73.8854 37.8986 74.4899 38.5749 75.3434 38.6105C76.1969 38.646 76.8904 38.0232 76.9259 37.169Z" fill="#F4FBF7"/>
<path d="M16.701 50.3368C13.8205 50.3368 10.9577 50.3189 8.07712 50.3545C7.47256 50.3545 7.2414 50.23 7.27696 49.5715C7.33031 48.5393 7.31253 47.4894 7.27696 46.4572C7.25918 45.9767 7.38365 45.7631 7.91709 45.7987C10.4776 45.9767 13.0559 45.8699 15.6164 45.9411C17.4834 45.9767 19.386 45.9945 21.2886 45.9055C22.6755 45.8343 24.0803 45.9233 25.485 45.8877C26.1251 45.8699 26.3029 46.1013 26.2674 46.6885C26.2318 47.6673 26.214 48.6461 26.2674 49.6249C26.3029 50.23 26.0895 50.3545 25.5205 50.3545C22.5511 50.3189 19.6172 50.3368 16.701 50.3368ZM9.4285 49.6249C10.2642 49.6249 10.9221 48.9309 10.9043 48.0588C10.8866 47.2224 10.2642 46.5996 9.4285 46.5996C8.59278 46.5818 7.88153 47.2758 7.88153 48.0944C7.89931 48.9309 8.61056 49.6249 9.4285 49.6249Z" fill="#F4FBF7"/>
<path d="M36.865 7.44944C39.1233 7.43164 39.1233 7.43164 39.1233 9.67396C39.1233 12.2188 39.1233 14.7815 39.1233 17.3263C39.1233 20.0847 39.1055 22.8431 39.1411 25.6015C39.1411 26.2244 38.9632 26.4202 38.3409 26.3846C37.3985 26.3312 36.4383 26.3312 35.4959 26.3846C34.838 26.4202 34.6602 26.2244 34.6602 25.5482C34.6957 20.2093 34.6779 14.8882 34.6779 9.54939C34.6779 7.44944 34.6957 7.44944 36.7761 7.43164C36.8117 7.44944 36.8473 7.44944 36.865 7.44944ZM36.8828 8.14349C36.0649 8.14349 35.407 8.80195 35.407 9.63837C35.407 10.4748 36.1182 11.151 37.0429 11.151C37.7897 11.151 38.4476 10.4214 38.4298 9.62057C38.412 8.74856 37.7719 8.14349 36.8828 8.14349Z" fill="#F4FBF7"/>
<path d="M50.094 68.5241C50.094 69.574 50.094 70.6418 50.094 71.6918C49.1338 72.3503 48.3514 73.1867 47.6401 74.1121C46.8578 74.3434 46.3777 74.8417 46.3955 75.6959C46.431 76.6035 47.0178 77.0128 47.8357 77.1908C47.7646 77.3688 47.7113 77.5645 47.6401 77.7425C45.6486 77.8137 45.6309 77.8137 45.6309 75.8383C45.6309 70.4283 45.6664 65.0182 45.6486 59.626C45.6486 58.9319 45.862 58.7718 46.5021 58.8074C47.4801 58.8607 48.4581 58.843 49.436 58.8252C49.8984 58.8074 50.1295 58.9141 50.1295 59.4658C50.0939 62.3666 50.094 65.2674 50.094 68.1681C49.9695 68.1859 49.845 68.2215 49.845 68.3639C49.845 68.4707 49.9695 68.5063 50.094 68.5241Z" fill="#F4FBF7"/>
<path d="M50.0939 72.6172C50.0939 73.4892 50.0939 74.379 50.0939 75.251C49.8805 75.3756 49.6671 75.5002 49.4537 75.6247C49.4004 74.9841 49.0803 74.5392 48.5469 74.2188C48.8136 73.4358 49.3648 72.9375 50.0939 72.6172Z" fill="#F4FBF7"/>
<path d="M50.0935 72.6185C49.3644 72.9389 48.8132 73.455 48.5287 74.2202C48.2264 74.1846 47.9419 74.149 47.6396 74.1312C48.3331 73.2058 49.1155 72.3694 50.0935 71.7109C50.0935 71.9957 50.0935 72.2982 50.0935 72.6185Z" fill="#F4FBF7"/>
<path d="M50.0949 76.1783C50.1482 77.7977 50.1482 77.7977 48.3701 77.7444C48.459 77.4774 48.7613 77.3172 48.6724 76.9791C48.8502 76.819 49.028 76.641 49.2058 76.4808C49.5792 76.5698 49.7571 76.1249 50.0949 76.1783Z" fill="#F4FBF7"/>
<path d="M50.0941 76.1774C49.7385 76.124 49.5607 76.5689 49.2051 76.4977C49.2762 76.213 49.3651 75.9282 49.4362 75.6257C49.6496 75.5011 49.863 75.3765 50.0764 75.252C50.0941 75.5545 50.0941 75.857 50.0941 76.1774Z" fill="#F4FBF7"/>
<path d="M48.671 76.9785C48.7777 77.3166 48.4576 77.4768 48.3687 77.7437C48.1197 77.7437 47.8886 77.7437 47.6396 77.7437C47.7108 77.5658 47.7641 77.37 47.8352 77.1921C48.1197 77.1209 48.4042 77.0497 48.671 76.9785Z" fill="#F4FBF7"/>
<path d="M50.0937 68.5243C49.9692 68.5065 49.8447 68.4709 49.8447 68.3286C49.8447 68.1862 49.9692 68.1506 50.0937 68.1328C50.0937 68.2574 50.0937 68.382 50.0937 68.5243Z" fill="#3EDA8E"/>
<path d="M76.9255 37.1675C76.8721 38.0217 76.1786 38.6446 75.3429 38.609C74.4894 38.5734 73.8849 37.8972 73.9204 37.0252C73.956 36.1709 74.6495 35.5303 75.4852 35.5659C76.3031 35.6193 76.9788 36.3489 76.9255 37.1675Z" fill="#000225"/>
<path d="M9.42881 49.6253C8.59309 49.6253 7.88184 48.9312 7.88184 48.0948C7.88184 47.2584 8.59309 46.5822 9.42881 46.6C10.2645 46.6177 10.8869 47.2228 10.9047 48.0592C10.9224 48.9312 10.2823 49.6253 9.42881 49.6253Z" fill="#000225"/>
<path d="M36.8831 8.14258C37.7721 8.14258 38.4123 8.74765 38.43 9.60187C38.4478 10.4205 37.7721 11.1501 37.0431 11.1323C36.1185 11.1323 35.4072 10.4561 35.4072 9.61966C35.4072 8.81883 36.0651 8.14258 36.8831 8.14258Z" fill="#000225"/>
<path d="M48.6718 76.9785C48.4051 77.0497 48.1206 77.1209 47.8539 77.192C47.0359 77.0141 46.4491 76.6048 46.4136 75.6972C46.3958 74.8429 46.8581 74.3446 47.6583 74.1133C47.9605 74.1489 48.245 74.1845 48.5473 74.2023C49.0808 74.5226 49.4008 74.9675 49.4542 75.6082C49.383 75.8929 49.2941 76.1776 49.223 76.4802C49.0274 76.6581 48.8496 76.8183 48.6718 76.9785Z" fill="#000225"/>
</svg>
