<svg width="72" height="85" viewBox="0 0 72 85" fill="none" xmlns="http://www.w3.org/2000/svg">
<path d="M36.2838 84.3533C3.81641 71.9176 4.3224 44.5948 4.74405 20.4811C4.78622 19.0548 4.78622 17.6285 4.82838 16.2468C17.478 15.6673 27.6399 11.6113 36.2838 3.63281C44.9699 11.6113 55.0896 15.6673 67.7392 16.2468C67.7392 17.6285 67.7814 19.0103 67.8235 20.4811C68.2874 44.5948 68.7512 71.873 36.2838 84.3533Z" fill="#5CDB94"/>
<path d="M71.9076 21.0077C71.8636 18.8049 71.8216 16.7239 71.8216 14.7108C71.8216 13.1336 70.4791 11.855 68.8223 11.855C55.9956 11.855 46.2296 8.34496 38.0893 0.808627C36.9248 -0.269733 35.0716 -0.269352 33.9075 0.808627C25.768 8.34496 16.0036 11.855 3.17767 11.855C1.52129 11.855 0.178425 13.1336 0.178425 14.7108C0.178425 16.7243 0.136836 18.806 0.0924468 21.0092C-0.31865 41.5087 -0.881706 69.5837 35.0161 81.4316C35.3344 81.5367 35.6663 81.5892 35.9982 81.5892C36.3301 81.5892 36.6624 81.5367 36.9804 81.4316C72.8809 69.5833 72.3187 41.5075 71.9076 21.0077ZM35.9986 75.7028C5.21156 65.0536 5.67704 41.7253 6.09014 21.1181C6.11493 19.8813 6.13893 18.6827 6.15572 17.5076C18.1687 17.0248 27.7751 13.5585 35.9986 6.73732C44.2229 13.5585 53.8309 17.0251 65.8447 17.5076C65.8615 18.6823 65.8855 19.8802 65.9103 21.1162C66.323 41.7242 66.7881 65.0532 35.9986 75.7028Z" fill="black"/>
<path d="M46.3267 30.8753L31.8508 44.6583L25.6735 38.7764C24.5022 37.6615 22.6031 37.6615 21.4322 38.7764C20.2609 39.8921 20.2609 41.7 21.4322 42.8153L29.7301 50.7164C30.3156 51.2738 31.0834 51.5526 31.8508 51.5526C32.6182 51.5526 33.386 51.2738 33.9714 50.7164L50.5677 34.9142C51.7394 33.7989 51.7394 31.9906 50.5681 30.8757C49.3971 29.7604 47.498 29.76 46.3267 30.8753Z" fill="black"/>
</svg>
