<svg width="44" height="59" viewBox="0 0 44 59" fill="none" xmlns="http://www.w3.org/2000/svg">
<path d="M6.13176 0.0595981C2.74873 0.0595981 0 2.83244 0 6.24515V16.0567L11.6292 10.2267C13.2502 9.37347 15.3646 9.72896 16.4923 11.222C18.0429 13.2128 17.3381 16.0567 15.1532 17.1232L0 24.7307V28.9966L22.5536 17.692C24.1746 16.8388 26.289 17.1943 27.4167 18.6873C28.9673 20.6781 28.2625 23.522 26.0776 24.5885L0 37.5994V42.5763L15.999 34.5422C17.62 33.689 19.7344 34.0445 20.8621 35.5376C22.4126 37.5284 21.7078 40.3723 19.5229 41.4387L0 51.2503V53.5254C0 56.5827 2.39633 59 5.42696 59H6.13176C55.1858 57.5069 56.102 -2.14445 6.13176 0.0595981Z" fill="white"/>
</svg>
