<svg width="41" height="46" viewBox="0 0 41 46" fill="none" xmlns="http://www.w3.org/2000/svg">
<path d="M41 17.0757C40.9823 17.0396 40.929 16.8229 40.9113 16.7146C40.8935 16.6243 40.8935 16.6604 40.8225 16.6063C40.7515 16.5521 40.7693 16.6243 40.6805 16.6424C40.5918 16.6604 40.6273 16.6785 40.4853 16.7688C40.4853 16.7688 40.3433 16.859 40.2545 16.8771C40.1836 16.8771 40.1481 16.9132 40.0416 16.9132C39.9528 16.9132 39.9173 16.9493 39.8463 16.9312C39.7753 16.9132 39.6333 17.0215 39.6333 17.0215L39.5091 17.0757C39.5091 17.0757 39.4203 17.1118 39.3848 17.0937C39.3316 17.0757 39.0299 17.1298 38.9944 17.1118C38.9589 17.0937 38.7991 17.1479 38.7991 17.1479L38.7104 17.184L38.5684 17.202L38.4264 17.3104C38.4264 17.3104 38.2667 17.4006 38.2489 17.3826C38.2134 17.3465 38.1069 17.4006 38.1069 17.3645C38.0892 17.3284 37.9294 17.3284 37.9294 17.3284C37.9294 17.3284 37.8229 17.3465 37.7519 17.3645C37.6987 17.3826 37.6277 17.4006 37.6277 17.4006L37.5035 17.4367C37.5035 17.4367 37.3082 17.5451 37.2727 17.5631C37.2372 17.5992 37.0952 17.527 37.0952 17.527C37.0952 17.527 36.8113 17.4909 36.8113 17.4729C36.7935 17.4368 36.5628 17.3465 36.545 17.3104C36.5273 17.2743 36.3853 17.184 36.3675 17.1659C36.3498 17.1298 36.2965 16.9854 36.2965 16.9854L36.2433 16.9312L36.19 16.859C36.19 16.859 36.0303 16.841 35.9593 16.859C35.8883 16.8771 35.8706 16.8229 35.8883 16.7688C35.8883 16.7146 36.0126 16.7688 36.0126 16.7688C36.0126 16.7688 36.2255 16.6785 36.261 16.6604C36.2965 16.6243 36.2788 16.5341 36.2965 16.516C36.332 16.4799 36.2433 16.3896 36.2255 16.3355C36.19 16.2813 36.1368 16.2813 36.1368 16.2813C36.1368 16.2813 36.0303 16.2632 35.9771 16.191C35.9238 16.1188 35.8706 16.1188 35.8173 16.0647C35.7818 16.0105 35.7286 15.9744 35.7108 15.9202C35.6753 15.8661 35.6398 15.8119 35.6398 15.7216C35.6221 15.6314 35.4801 15.5772 35.4801 15.5772L35.1429 15.2342C35.1429 15.2342 34.9121 15.1078 34.8766 15.0356C34.8234 14.9634 34.7701 14.9273 34.7701 14.9273C34.7701 14.9273 34.6636 14.9092 34.6459 14.8731C34.6281 14.837 34.4861 14.7828 34.4861 14.7828L34.3974 14.7467C34.3974 14.7467 34.3264 14.7287 34.3087 14.6926C34.2909 14.6384 34.2554 14.5662 34.2554 14.5301C34.2554 14.494 34.0957 14.4037 34.0957 14.4037C34.0957 14.4037 34.0957 14.4037 34.0779 14.3856C34.0602 14.3676 33.9359 14.3495 33.9004 14.3315C33.8649 14.3315 33.8117 14.1148 33.7939 14.0787C33.7762 14.0426 33.581 13.4468 33.5632 13.3385C33.5632 13.2302 33.5277 13.1399 33.4922 13.0316C33.4567 12.9233 33.4035 12.9052 33.3857 12.8691V12.8511C33.368 12.815 33.2615 12.7608 33.2437 12.7247C33.226 12.6886 32.9775 12.5261 32.9242 12.4539C32.8887 12.3817 32.7645 12.2914 32.729 12.2733C32.6935 12.2553 32.6403 12.2011 32.6225 12.165C32.6048 12.1109 32.5693 11.9484 32.5693 11.8942C32.5693 11.822 32.5338 11.6956 32.5338 11.6234C32.5338 11.5512 32.4628 11.3526 32.4805 11.2623C32.4805 11.1901 32.5693 11.0276 32.5693 11.0276C32.5693 11.0276 32.374 10.5402 32.374 10.5041C32.374 10.468 32.3208 10.4138 32.2853 10.3055C32.232 10.1971 32.1965 10.1791 32.1965 10.1249C32.1788 10.0708 32.0723 10.0708 32.0368 10.0347C32.0013 9.99855 31.9836 9.92634 31.9658 9.85412C31.9481 9.78191 31.8593 9.79996 31.8238 9.7458C31.7883 9.69164 31.6996 9.70969 31.6463 9.65553L31.6286 9.63748C31.5931 9.60137 31.5753 9.5472 31.5576 9.49304C31.5398 9.43888 31.5221 9.33056 31.5221 9.2764C31.5221 9.22224 31.6286 9.15002 31.6286 9.15002C31.6286 9.15002 31.6286 9.0417 31.6286 9.02364C31.6108 8.98753 31.6108 8.98753 31.6108 8.93337C31.6108 8.87921 31.4688 8.75283 31.4688 8.75283C31.4688 8.75283 31.3801 8.64451 31.3801 8.59035C31.3801 8.53619 31.2026 8.42787 31.2026 8.3737C31.2026 8.31954 31.0784 8.19316 31.0606 8.15706C31.0429 8.12095 30.9719 8.01263 30.9719 7.97652C30.9719 7.94041 30.7234 7.38074 30.7056 7.29047C30.6879 7.2002 30.6701 7.21826 30.6524 7.16409C30.6346 7.10993 30.5814 7.07382 30.5814 7.01966C30.5814 6.9655 30.5104 6.92939 30.4926 6.89329C30.4749 6.85718 30.4216 6.78496 30.4039 6.71275C30.3684 6.64053 30.3684 6.65858 30.3684 6.62248C30.3684 6.58637 30.3329 6.51415 30.3152 6.42388C30.2974 6.35167 30.2087 6.20724 30.1909 6.15308C30.1732 6.09891 30.1199 6.08086 30.0844 6.04475C30.0489 6.00865 29.9069 5.88227 29.9069 5.88227L29.8359 5.57535C29.8359 5.57535 29.8004 5.21427 29.8182 5.25038C29.8359 5.28649 29.8359 5.41287 29.8359 5.41287C29.8359 5.41287 29.9602 5.57535 29.9957 5.59341C30.0312 5.61146 30.0844 5.70173 30.1199 5.68367C30.1554 5.66562 30.1554 5.792 30.1732 5.792C30.2087 5.792 30.2797 6.0267 30.2974 6.06281C30.3329 6.09891 30.3506 6.17113 30.3506 6.17113C30.3506 6.17113 30.4749 6.31556 30.5104 6.33361C30.5104 6.33361 30.5104 6.33361 30.5104 6.35167C30.5814 5.75589 30.5459 5.10595 30.2264 4.60044C30.1554 4.47407 30.1554 4.36574 30.2087 4.25742C30.1022 4.25742 29.9957 4.25742 29.9424 4.27547C29.7827 4.29353 29.8004 4.27547 29.7472 4.22131C29.7117 4.16715 29.6407 4.1852 29.6052 4.11299C29.5697 4.04077 29.4987 4.07688 29.481 4.05883C29.4455 4.02272 29.3035 4.02272 29.2857 3.98661C29.268 3.9505 28.7887 3.96856 28.6468 4.02272C28.5225 4.05883 28.558 4.07688 28.558 4.07688C28.558 4.07688 28.3628 4.20326 28.2563 4.29353C28.1498 4.3838 28.061 4.43796 27.99 4.43796C27.919 4.45601 27.919 4.47407 27.8836 4.43796C27.8481 4.40185 27.7948 4.4199 27.7416 4.3838C27.6883 4.32963 27.6351 4.34769 27.5286 4.32963C27.4398 4.29353 27.3333 4.31158 27.2978 4.29353C27.2623 4.27547 27.1558 4.25742 27.1026 4.23936C27.0671 4.22131 26.9074 4.22131 26.9074 4.22131C26.9074 4.22131 26.4104 4.04077 26.3926 4.02272C26.3571 4.00466 25.9844 3.9505 25.9844 3.9505C25.9844 3.9505 25.8247 3.96856 25.7892 3.9505C25.7537 3.93245 25.6649 3.98661 25.5407 3.89634C25.5229 3.87829 25.5052 3.87829 25.4697 3.86023C25.4342 3.84218 25.3987 3.80607 25.3632 3.75191C25.2922 3.66164 25.3455 3.7158 25.31 3.66164C25.2745 3.60748 25.2567 3.62553 25.168 3.60748C25.0792 3.58943 24.9905 3.62553 24.955 3.64359C24.9017 3.66164 24.7597 3.64359 24.7597 3.64359C24.7597 3.64359 24.3515 3.58943 24.2983 3.55332C24.245 3.51721 24.2273 3.55332 24.2095 3.49916C24.1918 3.44499 24.103 3.42694 24.103 3.37278C24.0853 3.30056 24.032 3.30056 23.961 3.22835C23.89 3.15613 23.8545 3.21029 23.819 3.19224C23.7835 3.15613 23.7126 3.19224 23.6238 3.13808C23.5528 3.06586 23.5173 3.10197 23.4818 3.08392C23.4463 3.06586 23.2511 3.13808 23.1268 3.15613C23.0026 3.17419 23.0558 3.19224 23.0381 3.22835C23.0026 3.26446 22.8074 3.35472 22.7541 3.33667C22.7009 3.30056 22.6299 3.42694 22.5589 3.44499C22.4879 3.4811 22.4346 3.55332 22.3636 3.60748C22.2926 3.66164 22.2571 3.82413 22.2571 3.82413C22.2571 3.82413 22.3459 4.02272 22.3459 4.05883C22.3636 4.09493 22.3991 4.25742 22.4169 4.29353C22.4169 4.32963 22.2926 4.60044 22.2926 4.60044L22.0442 4.70877C22.0442 4.70877 21.8844 4.78098 21.8312 4.79904C21.7779 4.81709 21.7069 4.81709 21.6714 4.83514C21.6359 4.87125 21.5294 4.70877 21.4762 4.6546C21.4229 4.60044 21.3342 4.56433 21.281 4.52823C21.2277 4.49212 21.1567 4.51017 21.0857 4.43796C21.0147 4.36574 20.8727 4.36574 20.8372 4.34769C20.8017 4.31158 20.6597 4.31158 20.6597 4.31158C20.6597 4.31158 20.2515 4.23936 20.2338 4.20326C20.216 4.16715 20.074 4.23936 19.9853 4.23936C19.8965 4.23936 19.8965 4.23936 19.8788 4.1852C19.861 4.11299 19.7545 4.1491 19.6835 4.13104C19.6126 4.11299 19.6658 4.04077 19.6481 3.93245C19.6481 3.84218 19.5416 3.78802 19.5061 3.67969C19.4528 3.57137 19.4706 3.57137 19.4528 3.53526C19.4351 3.49916 19.3996 3.44499 19.3463 3.42694C19.2931 3.40889 19.1688 3.46305 19.1156 3.44499C19.0623 3.42694 18.7251 3.19224 18.7251 3.19224L18.3524 3.12002C18.3524 3.12002 17.9974 3.19224 17.9797 3.15613C17.9442 3.12002 17.8554 3.17419 17.7667 3.17419C17.6957 3.17419 17.6602 3.13808 17.6602 3.13808C17.6602 3.13808 17.5714 3.08392 17.5182 3.02975C17.4649 2.97559 17.4117 2.97559 17.3584 2.95754C17.3229 2.93949 17.2697 2.90338 17.2164 2.88532C17.181 2.86727 17.1632 2.84922 17.1455 2.83116C17.0922 2.777 17.039 2.72284 17.0035 2.68673C16.968 2.65062 16.9325 2.56035 16.897 2.50619C16.8615 2.47008 16.7372 2.48814 16.7372 2.48814C16.7372 2.48814 16.684 2.57841 16.6307 2.56035C16.5775 2.5423 16.5242 2.52425 16.471 2.45203C16.4177 2.37982 16.3822 2.37982 16.3468 2.3076C16.3113 2.23538 16.3645 2.27149 16.4177 2.21733C16.471 2.16317 16.4887 2.12706 16.5065 2.09095C16.5242 2.03679 16.6662 2.01874 16.684 1.98263C16.7017 1.94652 16.7905 1.91041 16.8615 1.85625C16.9147 1.80209 16.9502 1.71182 16.968 1.65766C17.0035 1.6035 16.9857 1.58544 16.9857 1.53128V1.38685C16.9857 1.35074 16.7905 1.07994 16.755 1.02577C16.7017 0.971613 16.6485 0.935505 16.6485 0.881343C16.6485 0.809128 16.684 0.827182 16.7195 0.754966C16.755 0.68275 16.7905 0.682751 16.826 0.592481C16.8615 0.502212 16.9325 0.484158 16.968 0.321673C16.968 0.321673 16.8792 0.249457 16.8615 0.267511C16.826 0.285565 16.684 0.44805 16.5775 0.466104C16.471 0.484158 16.5775 0.466104 16.5597 0.393889C16.542 0.321673 16.5242 0.231404 16.5242 0.159188C16.5065 0.0869725 16.4177 0.105026 16.329 0.0328109C16.2403 -0.0394046 16.2225 0.0328109 16.187 0.014757C16.1515 -0.00329687 16.0273 0.105026 15.9918 0.105026C15.974 0.12308 15.8853 0.177242 15.8853 0.177242C15.8853 0.177242 15.5303 0.321673 15.3883 0.357781C15.3706 0.357781 15.3528 0.357781 15.3351 0.357781C15.2996 0.339727 15.1753 0.411942 15.1221 0.375835C15.0688 0.339727 15.0156 0.393888 14.9446 0.267511C14.8736 0.159188 14.8381 0.267511 14.8203 0.249457C14.8026 0.21335 14.7494 0.303619 14.7139 0.267511C14.6784 0.231404 14.5364 0.321673 14.5009 0.303619C14.4654 0.267511 14.4121 0.321673 14.3944 0.267511C14.3589 0.231404 14.2346 0.21335 14.1991 0.21335C14.1636 0.21335 14.0926 0.267511 14.0571 0.285565C14.0216 0.285565 13.9329 0.393889 13.9329 0.393889C13.9329 0.393889 13.6844 0.574427 13.5602 0.556373C13.5247 0.556373 13.4359 0.466104 13.4359 0.466104L13.3649 0.375835L12.8502 0.321673C12.8502 0.321673 12.6195 0.375835 12.6017 0.357781C12.5662 0.339727 12.4242 0.357781 12.3177 0.375835C12.2113 0.375835 12.2645 0.411942 12.229 0.393889C12.1935 0.375835 12.1048 0.484158 12.0338 0.484158C11.9628 0.502212 11.7853 0.592481 11.7498 0.592481C11.6965 0.592481 11.2706 0.646643 11.1463 0.628589C10.9688 0.592481 10.9156 0.718858 10.8623 0.718858C10.8091 0.700804 10.7736 0.809128 10.7381 0.827182C10.6848 0.863289 10.6316 0.917451 10.5784 0.935505C10.5251 0.953559 10.3831 1.07994 10.3299 1.07994C10.2766 1.07994 10.2944 1.00772 10.2944 1.00772C10.2944 1.00772 9.85065 1.17021 9.81515 1.15215C9.77965 1.1341 9.72641 1.24242 9.69091 1.26047C9.65541 1.27853 9.58442 1.35074 9.56667 1.3688C9.53117 1.40491 9.44242 1.51323 9.44242 1.51323L9.30043 1.62155C9.30043 1.62155 9.21169 1.67571 9.17619 1.65766C9.14069 1.63961 9.08745 1.67571 8.9987 1.65766C8.92771 1.62155 8.90996 1.69377 8.89221 1.62155C8.87446 1.54934 8.80346 1.58544 8.78571 1.54934C8.76797 1.51323 8.62597 1.6035 8.59048 1.54934C8.55498 1.49518 8.57273 1.51323 8.51948 1.44101C8.46623 1.3688 8.41299 1.45907 8.37749 1.44101C8.32424 1.44101 8.2355 1.47712 8.2355 1.47712L8.129 1.53128C8.129 1.53128 7.91602 1.56739 7.88052 1.56739C7.82727 1.56739 7.68528 1.53128 7.68528 1.49518C7.68528 1.45907 7.45455 1.51323 7.4368 1.44101C7.41905 1.3688 7.11732 1.33269 7.11732 1.26047C7.11732 1.18826 7.04632 1.20631 7.02857 1.15215C7.02857 1.07994 6.90433 1.07994 6.90433 1.04383C6.90433 1.00772 6.85108 1.09799 6.81558 1.11604C6.78009 1.1341 6.74459 1.20631 6.70909 1.29658C6.65584 1.38685 6.70909 1.38685 6.67359 1.45907C6.65584 1.53128 6.51385 1.82015 6.51385 1.82015C6.51385 1.82015 6.47836 1.91041 6.46061 1.94652C6.44286 1.98263 6.40736 2.0729 6.38961 2.09095C6.37186 2.12706 6.33636 2.21733 6.30087 2.23538C6.26537 2.25344 6.19437 2.39787 6.14113 2.36176C6.10563 2.34371 5.99913 2.50619 5.99913 2.50619L5.71515 2.61452C5.71515 2.61452 5.50216 2.70478 5.48442 2.68673C5.44892 2.65062 5.36017 2.75895 5.32468 2.75895C5.28918 2.75895 5.21818 2.88532 5.11169 2.97559C5.00519 3.06586 4.98745 3.12002 4.9342 3.17419C4.88095 3.22835 4.80996 3.35472 4.79221 3.37278C4.77446 3.40889 4.66797 3.57137 4.63247 3.60748C4.59697 3.64359 4.61472 3.75191 4.61472 3.75191C4.61472 3.75191 4.47273 4.47407 4.45498 4.54628C4.43723 4.6185 4.45498 4.70877 4.49048 4.70877C4.52597 4.70877 4.50822 4.90736 4.50822 4.94347C4.50822 4.99763 4.49048 5.01568 4.45498 5.05179C4.41948 5.0879 4.36623 5.21427 4.33074 5.25038C4.29524 5.28649 4.24199 5.39481 4.20649 5.43092C4.171 5.46703 4.15325 5.50314 4.08225 5.57535C4.01126 5.64757 3.95801 5.64757 3.88701 5.66562C3.81602 5.70173 3.79827 5.75589 3.79827 5.75589L3.72727 5.86421C3.72727 5.86421 3.65628 5.95448 3.60303 5.99059C3.54978 6.0267 3.49654 6.08086 3.42554 6.13502C3.35455 6.18918 3.24805 6.24335 3.21255 6.22529C3.17706 6.22529 2.60909 6.44194 2.55584 6.45999C2.5026 6.45999 2.41385 6.62248 2.36061 6.67664H5.07619L5.09394 6.58637L5.14719 6.69469L5.09394 6.58637L5.07619 6.67664H2.3961C2.34286 6.7308 2.30736 6.98355 2.30736 6.98355L2.21861 7.14604C2.21861 7.14604 2.04113 7.32658 2.00563 7.32658C1.97013 7.34463 1.81039 7.45296 1.81039 7.45296C1.81039 7.45296 1.6684 7.61544 1.61515 7.63349C1.57965 7.65155 1.5619 7.85014 1.5619 7.85014C1.5619 7.85014 1.52641 8.08484 1.50866 8.12095C1.49091 8.15706 1.40216 8.3737 1.40216 8.3737C1.40216 8.3737 1.24242 8.55424 1.22468 8.59035C1.20693 8.62646 1.11818 8.73478 1.08268 8.77089C1.04719 8.807 0.993939 8.86116 0.940693 8.89727C0.887446 8.93337 0.851948 9.0417 0.834199 9.09586C0.798701 9.15002 0.81645 9.18613 0.798701 9.2764C0.780952 9.36667 0.763203 9.47499 0.727706 9.52915C0.692208 9.58331 0.585714 9.90828 0.479221 9.99855C0.372727 10.0888 0.319481 10.143 0.283983 10.2152C0.248485 10.2694 0.212987 10.3416 0.212987 10.3957C0.212987 10.4318 0.177489 10.5763 0.124242 10.7207C0.106494 10.7568 0.106494 10.7929 0.0887446 10.811C0.0354978 10.9735 0.0709957 11.0637 0.106494 11.0637C0.141991 11.0818 0.141991 11.0818 0.230736 11.0096C0.319481 10.9374 0.443723 11.2623 0.479221 11.2623C0.514719 11.2623 0.674459 11.6595 0.674459 11.6956C0.692208 11.7317 0.603463 11.822 0.550216 11.8762C0.479221 11.9303 0.49697 12.0206 0.49697 12.0206C0.49697 12.0206 0.550216 12.1289 0.585714 12.165C0.621212 12.2011 0.65671 12.3094 0.65671 12.3094L0.709957 12.5441C0.709957 12.5441 0.780952 12.833 0.780952 12.8691C0.780952 12.9052 0.692208 13.0497 0.692208 13.0497C0.692208 13.0497 0.550216 13.1941 0.532468 13.4107C0.532468 13.6093 0.532468 13.6815 0.514719 13.7177C0.49697 13.7177 0.49697 13.7538 0.479221 13.7899C0.461472 13.844 0.461472 13.8982 0.461472 13.8982C0.461472 13.8982 0.408225 14.1509 0.354978 14.2051C0.283983 14.2593 0.319481 14.3676 0.301732 14.3856C0.283983 14.4218 0.124242 14.5842 0.0709957 14.6203C0 14.6745 -0.0177489 14.8009 0.0177489 14.8009C0.0532468 14.8189 0.0887446 14.9814 0.124242 14.9995C0.177489 15.0356 0.177489 15.162 0.230736 15.162C0.283983 15.1439 0.425974 15.3606 0.425974 15.3606C0.425974 15.3606 0.408225 15.5953 0.443723 15.5772C0.479221 15.5772 0.408225 15.6133 0.372727 15.6675C0.319481 15.7216 0.319481 15.7758 0.301732 15.83C0.283983 15.8841 0.337229 15.9563 0.337229 15.9563L0.354978 16.173C0.354978 16.173 0.337229 16.2632 0.354978 16.2813C0.354978 16.2813 0.372727 16.2994 0.372727 16.3174C0.372727 16.3716 0.390476 16.4257 0.390476 16.4257C0.390476 16.4257 0.479221 16.4618 0.514719 16.4618C0.550216 16.4618 0.532467 16.5521 0.550216 16.5882C0.585714 16.6243 0.65671 16.6604 0.692208 16.6424C0.727706 16.6243 0.763203 16.6604 0.81645 16.6063C0.869697 16.5521 0.958441 16.6424 1.01169 16.6243C1.06493 16.6243 1.15368 16.7146 1.15368 16.7146V16.8771C1.15368 16.8771 1.15368 16.9854 1.15368 17.0215C1.15368 17.0576 1.20693 17.1118 1.22468 17.1118C1.24242 17.1118 1.29567 17.184 1.36667 17.2562C1.38442 17.2743 1.40216 17.2923 1.41991 17.2923C1.41991 17.2923 1.47316 17.4187 1.52641 17.4729C1.57965 17.509 1.6329 17.6173 1.68615 17.6534C1.73939 17.6895 1.82814 17.7256 1.82814 17.7256C1.82814 17.7256 2.05887 17.9423 2.28961 18.2853C2.36061 18.3936 2.3961 18.4478 2.41385 18.4839V18.5019C2.4671 18.538 2.52035 18.6464 2.55584 18.6825C2.59134 18.7186 2.68009 18.9533 2.68009 18.9894C2.68009 19.0435 2.66234 19.1699 2.66234 19.1699L2.71558 19.2782C2.71558 19.2782 2.83983 19.2963 2.89307 19.2963C2.94632 19.2963 2.92857 19.3866 2.96407 19.4046C2.99957 19.4227 3.15931 19.5129 3.17706 19.5129C3.21255 19.531 3.2658 19.7115 3.3368 19.7657C3.35455 19.7838 3.37229 19.7838 3.37229 19.7838C3.46104 19.8379 3.60303 19.874 3.60303 19.874C3.60303 19.874 3.86926 19.9643 3.95801 20.0907C4.04675 20.217 4.15325 20.3073 4.20649 20.3615C4.25974 20.4156 4.34848 20.5059 4.38398 20.5601C4.41948 20.6142 4.56147 20.6503 4.56147 20.6503C4.56147 20.6503 4.70346 20.7406 4.72121 20.7767C4.73896 20.8128 4.84545 20.885 4.8632 20.9031C4.8987 20.9211 5.04069 21.0295 5.05844 21.0656C5.09394 21.0836 5.27143 21.1197 5.32468 21.1558C5.37792 21.192 5.59091 21.2822 5.62641 21.2822C5.67965 21.3003 5.85714 21.3183 5.85714 21.3183C5.87489 21.3183 5.87489 21.3003 5.89264 21.3003C6.10563 21.192 6.21212 21.1558 6.30087 21.0475C6.40736 20.9392 6.40736 21.0114 6.47835 20.9753C6.54935 20.9392 6.69134 20.9392 6.81558 20.867C6.93983 20.7767 7.01082 20.8489 7.17056 20.7767C7.34805 20.7045 7.4368 20.7948 7.52554 20.7587C7.61429 20.7226 8.00476 20.7587 8.129 20.7226C8.271 20.6864 8.34199 20.7226 8.39524 20.7406C8.41299 20.7406 8.46623 20.7587 8.50173 20.7587C8.57273 20.7767 8.67922 20.7948 8.78571 20.8128C8.98095 20.8489 8.9632 21.0114 9.01645 21.0656C9.0697 21.1197 9.12294 21.0475 9.12294 21.0475C9.12294 21.0475 9.30043 20.9211 9.44242 20.8489C9.58442 20.7948 9.67316 20.7587 9.77965 20.6684C9.8684 20.5781 9.88615 20.5781 9.93939 20.5601C9.99264 20.542 10.0104 20.5781 10.1701 20.542C10.3299 20.5059 10.3299 20.524 10.4009 20.5059C10.4719 20.4879 10.5251 20.4517 10.5784 20.3976C10.5961 20.3976 10.5961 20.3795 10.6139 20.3795C10.6848 20.3254 10.7203 20.2893 10.8091 20.2893C10.8978 20.2893 11.0398 20.217 11.1286 20.1809C11.2173 20.1448 11.2351 20.1268 11.3238 20.1087H11.3416C11.4481 20.0726 11.4658 20.0546 11.4658 20.0546C11.4658 20.0546 11.803 20.0365 11.945 19.9462C11.8385 19.856 11.7498 19.7476 11.6965 19.6213C11.5723 19.3144 11.6433 18.9713 11.874 18.7547L20.4645 10.3596C20.7662 10.0708 21.2455 10.0708 21.5472 10.3596L23.9788 12.7247V11.84C23.9788 11.5692 24.1918 11.3526 24.458 11.3526H25.7537C26.0199 11.3526 26.2329 11.5692 26.2329 11.84V14.9092L30.1554 18.7366C30.3861 18.9533 30.4571 19.2963 30.3329 19.6032C30.2087 19.9101 29.9247 20.0907 29.6052 20.0907H28.6645V28.4677C28.6645 28.901 28.3095 29.262 27.8836 29.262H18.0861C18.0506 29.2981 18.0152 29.3343 18.0152 29.3523C17.9974 29.3884 18.1216 29.6051 18.2281 29.8037C18.3346 30.0023 18.3701 30.2731 18.4766 30.4175C18.5831 30.5619 18.4944 30.6883 18.5121 30.7425C18.5121 30.7966 18.5476 30.923 18.5476 30.9772C18.5654 31.0494 18.4766 31.248 18.4766 31.248C18.4766 31.248 18.3879 31.3924 18.3524 31.4285C18.3169 31.4646 18.2104 31.5188 18.1216 31.5729C18.0329 31.6271 17.9442 31.7174 17.8909 31.8076C17.8377 31.8979 17.7844 32.0423 17.8022 32.0965C17.8377 32.1687 17.6957 32.3131 17.6779 32.3131C17.6424 32.3312 17.5714 32.6562 17.5714 32.7284C17.5892 32.8006 17.5359 33.0534 17.5359 33.0895C17.5359 33.1256 17.4294 33.3603 17.4117 33.3964C17.3939 33.4325 17.3584 33.5228 17.3407 33.613C17.3229 33.7033 17.2697 33.8658 17.2697 33.8658V34.2991C17.2697 34.2991 17.2697 34.3352 17.2697 34.3713C17.2519 34.5518 17.2342 34.9851 17.3052 35.1115C17.3939 35.274 17.3584 35.292 17.3939 35.3281C17.4294 35.3823 17.4827 35.4545 17.5714 35.4726C17.6602 35.4906 17.6602 35.6351 17.7134 35.6712C17.7667 35.7073 17.8732 35.9059 17.9264 35.9059C17.9797 35.9239 17.9974 36.1947 17.9974 36.1947C17.9974 36.1947 18.0861 36.4294 18.1216 36.4294C18.1571 36.4294 18.2814 36.8447 18.2814 36.8447L18.3524 37.0433C18.3524 37.0433 18.4234 37.0794 18.4411 37.1155C18.4766 37.1696 18.4766 37.2238 18.5299 37.2419C18.5831 37.2599 18.5831 37.3321 18.7429 37.4585C18.9026 37.5849 18.8493 37.6751 18.8848 37.7293C18.9203 37.7835 18.9381 37.9098 18.9381 37.964C18.9381 38.0182 18.9558 38.2168 18.9558 38.2168C18.9558 38.2168 18.8316 38.6139 18.8139 38.6501C18.7961 38.6862 18.8316 38.7764 18.8848 38.8306C18.9381 38.8848 18.9381 38.9931 18.9913 39.0111C19.0446 39.0472 19.0446 39.2097 19.0801 39.1917C19.1156 39.1917 19.1156 39.4625 19.1333 39.5889C19.1688 39.7152 19.0978 39.7694 19.0801 39.7874C19.0801 39.8236 19.0446 39.8597 19.0801 39.968C19.1156 40.0583 19.1156 40.0763 19.2043 40.4013C19.2931 40.7443 19.2753 40.6721 19.3286 40.7082C19.3818 40.7443 19.3818 40.979 19.4173 40.961C19.4528 40.9429 19.719 41.4484 19.8433 41.647C19.9675 41.8275 19.9675 41.8095 20.0208 41.8636L20.0385 41.8817C20.1095 41.9539 20.1628 42.0622 20.216 42.1345C20.2693 42.2067 20.3403 42.315 20.4113 42.315C20.4823 42.315 20.4645 42.5136 20.4645 42.5858C20.4645 42.658 20.5355 42.8205 20.5355 42.8566C20.5532 42.8927 20.5887 43.0913 20.571 43.1274C20.5532 43.1816 20.642 43.2899 20.7485 43.3982C20.8372 43.5065 20.8905 43.5246 20.9437 43.5607C20.997 43.6149 21.0147 43.7954 21.0325 43.8135C21.068 43.8315 21.1567 43.9579 21.1745 43.994C21.1922 44.0301 21.1922 44.3731 21.139 44.4634C21.1035 44.5717 21.139 44.4634 21.0147 44.5717C20.8905 44.68 20.8905 44.6439 20.8905 44.6439L20.926 44.7703C20.926 44.7703 20.9792 44.9509 21.0325 44.9148C21.0857 44.8786 21.1567 45.1856 21.1745 45.2397C21.1922 45.2939 21.1922 45.3119 21.1922 45.3119C21.1922 45.3119 21.1922 45.4203 21.1745 45.5105C21.1567 45.5827 21.2632 45.5647 21.281 45.5286C21.2987 45.4925 21.3874 45.5647 21.4229 45.6008C21.4584 45.6369 21.5117 45.673 21.5649 45.673C21.6182 45.673 21.6182 45.7813 21.6182 45.7813C21.6182 45.7813 21.6892 45.8716 21.7069 45.8536C21.7424 45.8536 21.7957 45.9438 21.9199 45.8897C22.0442 45.8355 22.0797 45.9438 22.2749 45.998C22.3281 46.016 22.3991 45.9077 22.4524 45.8716C22.5056 45.8174 22.5411 45.8174 22.5411 45.8174L22.7541 45.7452C22.7541 45.7452 22.8429 45.7272 23.0558 45.7452C23.2688 45.7633 23.1446 45.673 23.2156 45.6369C23.2866 45.6008 23.3043 45.7091 23.4108 45.655C23.5173 45.6008 23.4108 45.655 23.5351 45.5827C23.5883 45.5647 23.5706 45.5286 23.6416 45.4564C23.7126 45.3842 23.6948 45.4744 23.819 45.4203C23.819 45.4203 23.8723 45.4383 24.0143 45.5105C24.0143 45.5105 24.103 45.5286 24.1918 45.4925C24.2805 45.4564 24.245 45.4925 24.2805 45.4564C24.316 45.4203 24.3338 45.4744 24.387 45.4564C24.4403 45.4383 24.4758 45.5105 24.5468 45.4925C24.6178 45.4925 24.6532 45.5105 24.7597 45.5647C24.7597 45.5647 25.0082 45.655 25.1147 45.6189C25.1325 45.6008 25.168 45.5466 25.1857 45.4925C25.2035 45.4383 25.2745 45.4744 25.2922 45.4383C25.31 45.4022 25.3987 45.4925 25.3987 45.4925L25.5052 45.5105C25.5052 45.5105 25.5762 45.4564 25.6117 45.4203C25.6649 45.3842 25.6649 45.3661 25.7537 45.2397C25.7714 45.2036 25.8779 45.2758 25.9667 45.2578H26.0909C26.0909 45.2578 26.1797 45.2758 26.2506 45.2217C26.3216 45.1675 26.3216 45.2217 26.3926 45.1675C26.4636 45.1133 26.4814 45.1314 26.5346 45.0953C26.5879 45.0592 26.6589 44.987 26.6589 44.987C26.6589 44.987 26.8186 44.8786 26.9429 44.7703C26.9784 44.7342 27.0316 44.6981 27.1381 44.5717C27.2446 44.4634 27.2091 44.5176 27.2446 44.4454C27.2978 44.3731 27.2978 44.4092 27.3156 44.3551C27.3511 44.3009 27.4043 44.2829 27.4576 44.1926C27.5286 44.1023 27.5463 44.1204 27.6528 44.0301C27.7593 43.9398 27.7593 43.9398 27.8126 43.8676C27.8658 43.7954 27.9545 43.7593 28.0965 43.5788C28.2385 43.3982 28.0965 43.5788 28.0965 43.5427C28.0965 43.5065 28.2563 43.4524 28.274 43.4343C28.3095 43.4163 28.3983 43.2357 28.4338 43.1816C28.4693 43.1274 28.4515 43.1274 28.4693 43.0733C28.5048 43.001 28.5758 42.9288 28.6113 42.8566C28.6468 42.7844 28.7177 42.7483 28.7355 42.7122C28.7532 42.6761 28.8242 42.6219 28.8242 42.6219C28.8242 42.6219 28.8952 42.5316 28.913 42.4955C28.9307 42.4594 29.0372 42.315 29.0727 42.2789C29.1082 42.2247 29.126 42.2067 29.1437 42.1706C29.1615 42.1345 29.2147 42.1345 29.2502 42.0983C29.2857 42.0622 29.4277 41.9178 29.4455 41.8817C29.4632 41.8456 29.5165 41.7914 29.5697 41.6651C29.6229 41.5567 29.6052 41.5748 29.6229 41.4845C29.6584 41.3942 29.6762 41.3762 29.7117 41.322C29.7472 41.2679 29.8004 41.1776 29.8182 41.0873C29.8182 41.0151 29.7827 40.979 29.8359 40.8707C29.8714 40.7985 29.8892 40.7624 29.8892 40.7263C29.8892 40.7082 29.8892 40.6721 29.8892 40.654C29.8892 40.5818 29.9069 40.5638 29.9069 40.4916C29.8892 40.4193 29.9602 40.4374 29.9957 40.3832C30.0312 40.3291 29.9957 40.293 29.9779 40.2388C29.9602 40.1666 29.9069 40.1124 29.9069 40.1124C29.9069 40.1124 29.8537 40.1846 29.8004 40.1305C29.7294 40.0583 29.8004 40.1305 29.7294 40.0583C29.6584 39.986 29.7294 40.0583 29.7294 39.9138C29.7472 39.7694 29.7649 39.8777 29.8182 39.8055C29.8714 39.7333 29.8714 39.7694 29.9247 39.6972C29.9779 39.625 30.0134 39.643 30.1022 39.5708C30.1909 39.4986 30.2264 39.5166 30.3152 39.4625C30.4039 39.4083 30.4749 39.4264 30.5104 39.4083C30.5636 39.3903 30.7589 39.3181 30.7589 39.3181C30.7589 39.3181 30.9009 39.3181 30.9364 39.2819C30.9719 39.2458 31.1139 39.1736 31.1316 39.1556C31.1671 39.1375 31.3091 39.0834 31.3091 39.0834C31.3091 39.0834 31.3801 38.8848 31.3623 38.8125C31.3623 38.7403 31.3801 38.7584 31.4156 38.6139C31.4511 38.4695 31.4333 38.5598 31.4333 38.4515C31.4511 38.3431 31.4688 38.289 31.4688 38.289C31.4688 38.289 31.5043 38.2168 31.5043 38.1446C31.5043 38.0723 31.5043 37.964 31.5043 37.946C31.5221 37.9098 31.4688 37.8737 31.4866 37.7654C31.5043 37.6571 31.3978 37.6932 31.4156 37.6029C31.4333 37.5127 31.4156 37.5668 31.4333 37.4946C31.4511 37.4224 31.3978 37.4404 31.3801 37.3682C31.3446 37.296 31.3268 37.296 31.2913 37.2238C31.2558 37.1516 31.2381 37.1696 31.2381 37.0974C31.2381 37.0252 31.2736 37.0072 31.2736 36.8988C31.2913 36.7905 31.2736 36.8086 31.2736 36.7363C31.2736 36.6641 31.2381 36.6641 31.1848 36.5919C31.1316 36.5197 31.1139 36.5558 31.0251 36.4475C30.9364 36.3392 31.0251 36.4114 31.0074 36.3211C31.0074 36.2308 31.0251 36.2669 31.0251 36.2308C31.0251 36.1947 31.0251 36.1586 30.9896 36.1045C30.9541 36.0322 30.9541 35.96 30.9541 35.96C30.9896 35.942 31.0429 36.0684 31.0429 36.0684C31.0429 36.0684 31.1139 36.0684 31.1671 35.96C31.2203 35.8517 31.2558 35.8698 31.3268 35.7975C31.3978 35.7253 31.3978 35.8156 31.4333 35.7614C31.4688 35.7253 31.5043 35.7253 31.5398 35.6892C31.5753 35.6351 31.6463 35.617 31.7528 35.5087C31.8416 35.4004 31.8238 35.4545 31.8593 35.4184C31.8948 35.3823 31.9658 35.274 31.9658 35.2379C31.9836 35.2018 32.0013 35.1476 32.0013 35.1476C32.0013 35.1476 32.09 35.0934 32.1788 35.0032C32.2675 34.9129 32.2853 34.8949 32.3563 34.8046C32.4273 34.7324 32.4273 34.7504 32.4805 34.6963C32.5338 34.6421 32.5338 34.6782 32.6225 34.6421C32.7113 34.5879 32.729 34.606 32.7822 34.5699C32.8355 34.5338 32.8532 34.5518 32.942 34.4796C33.013 34.4074 33.0662 34.4254 33.226 34.3532C33.2615 34.3352 33.4745 34.2269 33.4745 34.2269C33.4745 34.2269 33.6519 34.1366 33.7052 34.1546C33.7584 34.1727 34.0602 33.7936 34.2377 33.613C34.4329 33.4325 34.3264 33.5228 34.3619 33.4505C34.3974 33.3783 34.4329 33.3783 34.4506 33.3242C34.4684 33.27 34.5216 32.9811 34.5394 32.927C34.5571 32.8728 34.5571 32.8187 34.5571 32.7464C34.5571 32.6742 34.5394 32.584 34.5394 32.5298C34.5394 32.4756 34.5039 32.3493 34.5571 32.259C34.5926 32.1687 34.4861 32.1146 34.4861 32.0062C34.4861 31.8979 34.5039 31.8979 34.5039 31.8257C34.5039 31.7535 34.4684 31.6452 34.4684 31.5549C34.4506 31.4646 34.4506 31.4466 34.4329 31.3563C34.4151 31.2841 34.4152 31.3021 34.3974 31.1035C34.3797 30.8869 34.4329 30.9411 34.4329 30.8688C34.4329 30.7966 34.4506 30.7605 34.4684 30.7244C34.4861 30.6883 34.4506 30.2911 34.4506 30.255C34.4506 30.2369 34.4329 30.1828 34.3974 30.1467C34.3619 30.1106 34.3442 30.0564 34.3442 30.0384C34.3264 30.0022 34.2909 29.9842 34.2554 29.9481C34.2199 29.912 34.1667 29.8759 34.1667 29.8398C34.1489 29.8037 34.0957 29.7314 34.0957 29.6773C34.0779 29.6231 33.9714 29.6231 33.9537 29.6051C33.9359 29.569 33.9182 29.4787 33.9182 29.4065C33.9182 29.3343 33.8649 29.3343 33.8117 29.2259C33.7584 29.1357 33.7762 29.1176 33.7229 28.9732C33.6697 28.8287 33.6874 28.919 33.7052 28.8649C33.7229 28.8107 33.7584 28.8287 33.7762 28.7565C33.7939 28.6843 33.8472 28.6843 33.7762 28.594C33.7762 28.594 33.7407 28.5038 33.7229 28.4677C33.7052 28.4316 33.7762 28.3774 33.7762 28.3774L33.8649 28.2691C33.8649 28.2691 33.9004 28.1066 33.9004 28.0705C33.9004 28.0344 33.8649 28.0344 33.7584 27.8899C33.6342 27.7455 33.6697 27.7997 33.6342 27.7455C33.581 27.6914 33.5455 27.6733 33.5277 27.6011C33.51 27.5289 33.4922 27.5289 33.51 27.4567C33.51 27.3844 33.51 27.3303 33.51 27.2581C33.51 27.1858 33.51 27.222 33.5455 27.1317C33.581 27.0414 33.5455 27.1317 33.5987 27.0234C33.6342 26.9511 33.6697 26.8789 33.7052 26.8067C33.7229 26.7706 33.7407 26.7345 33.7584 26.6984C33.8117 26.572 33.8117 26.6262 33.8294 26.554C33.8472 26.4637 33.9004 26.4817 33.9359 26.3373C33.9892 26.1929 34.0069 26.2109 34.0779 26.1026C34.1489 25.9943 34.1489 25.904 34.1667 25.7776C34.1844 25.6513 34.2199 25.5791 34.2554 25.561C34.2909 25.5249 34.3264 25.5249 34.3797 25.4888C34.4329 25.4346 34.4684 25.3985 34.5394 25.3082C34.5926 25.218 34.6636 25.1277 34.6991 25.0735C34.7346 25.0194 34.8411 25.0374 34.8411 25.0374C34.8411 25.0374 34.9831 25.0194 35.0364 24.893C35.0541 24.8569 35.0719 24.8388 35.0719 24.8208C35.1074 24.7666 35.1606 24.7666 35.1961 24.7125C35.2494 24.6402 35.2671 24.6041 35.3026 24.5319C35.3558 24.4597 35.3558 24.4597 35.3913 24.3514C35.4446 24.2431 35.4268 24.2972 35.4801 24.2431C35.5333 24.1708 35.6221 24.1347 35.7286 24.0084C35.8351 23.9 35.7996 23.9723 35.8528 23.8639C35.9238 23.7556 35.9416 23.8098 36.0303 23.6834C36.1013 23.557 36.1368 23.5931 36.19 23.5029C36.7403 23.7195 36.7403 23.4306 37.2372 23.0876C37.4147 22.6904 37.8229 22.7265 37.5922 22.4738C37.6632 22.4196 37.7342 22.3655 37.7519 22.3474C37.8052 22.2932 37.8939 22.2752 37.9117 22.2391C37.9294 22.203 38.0004 22.1669 38.0359 22.1127C38.0714 22.0405 38.1247 22.0224 38.1424 21.9683C38.1779 21.8961 38.3022 21.7516 38.3022 21.7516C38.3022 21.7516 38.7281 21.2461 38.7636 21.21C38.7991 21.1739 39.0121 20.9211 39.0299 20.9031C39.0654 20.867 39.1009 20.8309 39.1186 20.7587C39.1364 20.6684 39.2784 20.5781 39.3139 20.4698C39.6333 20.4517 39.5978 20.0004 39.7576 19.7296C39.9173 19.4407 40.2013 19.4588 40.0238 19.188C40.0593 19.1519 40.0771 19.1158 40.0948 19.0616C40.1658 18.9533 40.1303 18.9894 40.1835 18.9172C40.2368 18.845 40.1835 18.9172 40.2723 18.7186C40.361 18.52 40.3255 18.6283 40.3788 18.5922C40.432 18.5561 40.3788 18.4839 40.4498 18.4117C40.503 18.3394 40.4853 18.3575 40.5208 18.2853C40.5563 18.195 40.5918 18.177 40.6273 18.0867C40.6628 17.9964 40.6273 18.0325 40.6273 17.9061C40.6273 17.7798 40.6628 17.7978 40.6805 17.7256C40.6983 17.6714 40.716 17.6173 40.7338 17.5992C40.7515 17.5631 40.8225 17.509 40.8225 17.509C40.8225 17.509 41 17.1118 41 17.0757Z" fill="#B8B8B8"/>
</svg>
