<svg width="81" height="110" viewBox="0 0 81 110" fill="none" xmlns="http://www.w3.org/2000/svg">
<path d="M11.4793 0.111115C5.14592 0.111115 0 5.28081 0 11.6435V29.9362L21.7711 19.0666C24.8059 17.476 28.7643 18.1387 30.8755 20.9224C33.7783 24.634 32.4588 29.9362 28.3684 31.9245L0 46.108V54.0614L42.2228 32.985C45.2576 31.3943 49.216 32.0571 51.3271 34.8408C54.2299 38.5523 52.9104 43.8546 48.8201 45.8429L0 70.1006V79.3795L29.9518 64.4007C32.9866 62.8101 36.945 63.4729 39.0561 66.2565C41.959 69.9681 40.6395 75.2703 36.5491 77.2587L0 95.5514V99.7932C0 105.493 4.48619 110 10.1599 110H11.4793C103.314 107.216 105.029 -3.99812 11.4793 0.111115Z" fill="white"/>
</svg>
