<svg width="446" height="447" viewBox="0 0 446 447" fill="none" xmlns="http://www.w3.org/2000/svg">
<path d="M141.661 173.956C140.442 171.604 138.176 170.122 135.562 169.948L73.0031 165.766C69.7793 165.417 66.7297 167.421 65.597 170.471L20.4637 285.657C19.2439 288.706 20.2023 292.279 22.9034 294.283C24.2103 295.328 25.7786 295.764 27.4341 295.764C29.0025 295.764 30.5708 295.241 31.8777 294.283L69.3436 266.227L91.1261 270.583C94.6984 271.28 98.2708 269.363 99.4906 265.965C111.166 235.296 125.281 206.804 141.313 181.275C142.707 179.097 142.794 176.309 141.661 173.956ZM87.8152 254.813L68.908 251.066C66.8168 250.63 64.7257 251.153 62.9831 252.373L43.8145 266.75L77.4467 180.926L122.319 183.889C109.336 205.846 97.8351 229.632 87.8152 254.813Z" fill="#5CDB94"/>
<path d="M280.288 373.05L276.106 310.491C275.932 307.877 274.363 305.525 272.098 304.392C269.746 303.172 266.957 303.346 264.779 304.74C239.25 320.772 210.759 334.887 180.089 346.563C176.691 347.87 174.774 351.442 175.471 354.927L179.827 376.71L151.772 414.089C149.768 416.79 149.768 420.449 151.772 423.063C153.166 424.98 155.431 426.025 157.696 426.025C158.568 426.025 159.526 425.851 160.397 425.503L275.67 380.369C278.633 379.324 280.55 376.361 280.288 373.05ZM179.305 402.239L193.681 383.07C194.988 381.415 195.424 379.237 194.988 377.145L191.241 358.238C216.509 348.305 240.208 336.717 262.165 323.822L265.128 368.694L179.305 402.239Z" fill="#5CDB94"/>
<path d="M215.553 223.098H165.453C162.752 223.098 160.313 224.579 158.919 226.931L96.0108 339.939C94.3553 342.901 94.9652 346.561 97.3177 348.913C98.7118 350.307 100.629 351.004 102.458 351.004C103.765 351.004 105.072 350.656 106.292 349.959L219.387 281.475C221.652 280.168 222.959 277.728 222.959 275.114V230.504C222.959 226.409 219.648 223.098 215.553 223.098ZM208.06 270.932L122.673 322.6L169.81 237.91H208.147V270.932H208.06Z" fill="#5CDB94"/>
<path d="M445.655 7.18805C445.306 3.52859 442.518 0.740435 438.858 0.391915C436.332 0.217655 191.584 -16.8598 85.5465 260.649C84.5009 263.35 85.1979 266.487 87.2019 268.578L122.577 303.953C124.232 305.608 126.585 306.392 128.85 306.044C131.203 305.695 133.207 304.301 134.339 302.297L169.714 237.995H207.964V271.105L143.226 311.969C141.31 313.188 140.09 315.192 139.828 317.458C139.567 319.723 140.351 321.901 141.92 323.557L177.294 358.932C178.688 360.326 180.605 361.11 182.522 361.11C183.393 361.11 184.352 360.936 185.136 360.587C462.906 254.463 445.829 9.62769 445.655 7.18805ZM406.62 139.103C380.568 203.666 320.797 291.406 184.526 344.817L159.171 319.462L219.465 281.473C221.643 280.079 222.95 277.726 222.95 275.2V230.589C222.95 226.494 219.639 223.183 215.544 223.183H165.445C162.744 223.183 160.217 224.664 158.91 227.017L126.149 286.527L101.23 261.607C194.197 24.1784 392.505 14.507 431.017 15.0297C431.365 32.3686 429.71 81.9455 406.62 139.103Z" fill="#5CDB94"/>
<path d="M127.283 328.432C125.627 326.254 123.1 325.208 120.574 325.557C120.835 323.03 119.789 320.503 117.698 318.848C106.459 310.396 91.995 307.521 77.9671 311.093C63.0679 314.84 50.8697 325.034 44.5963 338.975L0.682819 435.689C-0.62413 438.477 -0.01422 441.876 2.16403 444.054C3.55811 445.448 5.47497 446.232 7.39182 446.232C8.43738 446.232 9.48294 445.971 10.4414 445.535L107.156 401.534C121.096 395.174 131.203 383.063 135.037 368.164C138.522 354.136 135.734 339.585 127.283 328.432ZM120.574 364.417C117.873 374.873 110.728 383.498 100.969 387.942L22.291 423.665L58.0143 344.987C62.4579 335.228 71.0838 327.997 81.5394 325.383C84.3276 324.686 87.0286 324.337 89.8167 324.337C94.4346 324.337 98.9654 325.296 103.06 327.212L96.003 339.759C94.3475 342.634 94.8703 346.294 97.2228 348.646C99.5753 350.999 103.235 351.522 106.11 349.866L118.657 342.809C121.793 349.431 122.49 357.011 120.574 364.417Z" fill="#5CDB94"/>
<path d="M445.657 7.18595C445.309 3.52649 442.52 0.738335 438.861 0.389815C435.986 0.128425 367.066 -5.09937 285.948 32.2794C283.77 33.3249 282.201 35.3289 281.766 37.6814C281.33 40.0339 282.114 42.5607 283.857 44.2162L401.744 162.103C403.138 163.497 405.055 164.281 406.971 164.281C407.407 164.281 407.843 164.281 408.278 164.194C410.631 163.758 412.722 162.19 413.68 160.012C451.059 79.0681 445.831 10.0612 445.657 7.18595ZM404.619 144.067L301.98 41.428C361.315 16.4217 413.245 14.6791 431.019 14.9405C431.368 32.8021 429.712 84.5573 404.619 144.067Z" fill="#5CDB94"/>
<path d="M328.206 117.85C303.2 92.8441 262.51 92.8441 237.504 117.85C212.497 142.857 212.497 183.546 237.504 208.553C249.963 221.099 266.431 227.286 282.811 227.286C299.192 227.286 315.659 221.012 328.119 208.553C353.212 183.459 353.212 142.77 328.206 117.85ZM317.75 198.01C298.582 217.178 267.302 217.178 248.134 198.01C228.965 178.841 228.965 147.562 248.134 128.393C257.718 118.809 270.352 114.017 282.986 114.017C295.619 114.017 308.253 118.809 317.838 128.393C336.919 147.562 336.919 178.754 317.75 198.01Z" fill="#5CDB94"/>
<path d="M297.711 177.957C289.521 186.147 276.277 186.147 268.174 177.957C259.984 169.767 259.984 156.523 268.174 148.42C276.364 140.23 289.608 140.23 297.711 148.42C300.586 151.295 305.291 151.295 308.254 148.42C311.129 145.545 311.129 140.84 308.254 137.877C294.313 123.937 271.572 123.937 257.631 137.877C243.691 151.818 243.691 174.559 257.631 188.5C264.602 195.47 273.75 198.956 282.899 198.956C292.048 198.956 301.196 195.47 308.167 188.5C311.042 185.625 311.042 180.92 308.167 177.957C305.291 174.995 300.586 174.995 297.711 177.957Z" fill="#5CDB94"/>
</svg>
