<svg width="442" height="414" viewBox="0 0 442 414" fill="none" xmlns="http://www.w3.org/2000/svg">
<path d="M278.518 284.487C265.322 293.707 251.558 299.684 235.839 302.237C234.84 292.405 233.85 282.305 220.43 282.814C208.096 283.28 207.424 292.819 206.46 302.246C190.783 299.736 176.959 293.733 163.85 284.574C165.788 282.426 167.605 280.468 169.362 278.467C174.332 272.835 174.306 263.934 169.328 258.889C164.427 253.921 155.306 253.878 149.767 258.828C147.847 260.536 146.003 262.33 143.798 264.391C134.505 251.506 128.708 237.559 125.986 221.801C128.355 221.474 130.594 221.137 132.834 220.861C140.939 219.869 145.418 215.057 145.487 207.243C145.556 199.092 141.214 194.245 132.886 193.158C130.637 192.865 128.398 192.528 126.167 192.218C127.761 178.815 134.867 161.556 143.721 149.723C145.711 151.517 147.674 153.311 149.655 155.07C155.271 160.064 164.195 160.116 169.225 155.2C174.358 150.18 174.358 141.064 169.182 135.293C167.485 133.405 165.71 131.585 163.747 129.497C176.778 120.303 190.577 114.412 206.253 111.713C206.606 113.964 207.011 116.163 207.286 118.371C208.329 126.789 213.074 131.214 221.145 131.222C229.19 131.222 234.039 126.72 235.004 118.363C235.245 116.241 235.564 114.136 235.891 111.722C251.541 114.257 265.365 120.269 278.509 129.437C276.631 131.455 274.995 133.198 273.376 134.974C267.975 140.9 267.829 150.154 273.048 155.191C278.259 160.219 287.131 160.03 292.919 154.743C294.702 153.113 296.442 151.439 298.474 149.533C307.742 162.548 313.634 176.452 316.278 192.235C306.381 193.253 296.347 194.322 296.855 207.743C297.329 220.12 306.933 220.663 316.252 221.681C313.763 237.395 307.751 251.23 298.569 264.391C296.511 262.502 294.659 260.777 292.781 259.078C287.062 253.903 277.923 253.843 272.91 258.932C267.889 264.02 268.044 273.068 273.264 278.829C274.891 280.615 276.562 282.374 278.518 284.487ZM258.561 132.947C255.813 131.749 253.401 130.869 251.153 129.67C247.786 127.885 245.899 128.54 243.634 131.93C232.514 148.541 210.99 148.817 199.095 132.775C198.415 131.852 197.993 130.662 197.149 129.963C196.313 129.273 194.892 128.437 194.074 128.704C190.611 129.868 187.269 131.421 183.712 132.904C188.914 144.962 186.658 155.226 178.027 163.894C169.268 172.682 158.803 174.589 147.166 169.595C145.926 172.415 144.996 174.821 143.833 177.107C142.214 180.298 142.687 182.101 146.003 184.318C163.273 195.858 163.049 218.3 145.814 229.917C145.34 230.237 144.651 230.426 144.401 230.866C143.807 231.953 142.765 233.359 143.049 234.264C144.109 237.637 145.642 240.862 147.115 244.425C158.94 239.319 169.233 241.345 177.95 249.962C186.804 258.707 188.82 269.144 183.815 281.003C186.46 282.184 188.863 283.09 191.102 284.289C194.479 286.092 196.373 285.393 198.639 282.012C208.527 267.203 226.787 265.073 239.465 277.001C241.532 278.942 242.962 281.538 244.917 283.625C245.718 284.479 247.338 285.479 248.199 285.203C251.679 284.091 255.004 282.512 258.535 281.037C253.427 268.997 255.572 258.733 264.237 250.039C273.022 241.225 283.479 239.405 295.132 244.33C296.338 241.535 297.234 239.12 298.397 236.835C300.016 233.661 299.68 231.78 296.269 229.616C285.985 223.087 281.308 211.426 284.211 200.653C286.201 193.262 290.8 187.742 297.113 183.481C298.216 182.739 299.456 180.695 299.172 179.66C298.225 176.27 296.605 173.071 295.107 169.474C282.876 174.813 272.402 172.398 263.686 163.307C255.469 154.743 253.505 144.669 258.561 132.947Z" fill="#314048"/>
<path d="M314.18 0C315.119 1.20749 315.938 2.5271 317.006 3.60522C334.749 21.4157 352.535 39.1744 370.235 57.0194C371.338 58.132 372.5 59.8397 372.509 61.2801C372.638 93.4683 372.604 125.665 372.604 158.207C368.228 158.207 364.008 158.207 359.253 158.207C359.253 128.727 359.253 99.0745 359.253 69.0511C340.718 69.0511 322.69 69.0511 304.146 69.0511C304.146 50.5334 304.146 32.378 304.146 13.9465C230.357 13.9465 157.084 13.9465 83.3035 13.9465C83.3035 62.0132 83.3035 110.063 83.3035 158.336C78.5662 158.336 74.3458 158.336 69.6946 158.336C69.6946 156.439 69.6946 154.757 69.6946 153.075C69.6946 103.344 69.6946 53.6125 69.6946 3.87259C69.6946 2.57885 69.6085 1.28511 69.5654 0C151.107 0 232.639 0 314.18 0ZM317.815 24.7708C317.815 34.8361 317.815 44.9531 317.815 55.0011C328.211 55.0011 338.272 55.0011 347.979 55.0011C337.927 44.9272 327.867 34.8447 317.815 24.7708Z" fill="#314048"/>
<path d="M69.5654 413.999C69.6085 380.371 69.6602 346.742 69.6946 313.113C69.7119 295.294 69.686 277.467 69.6946 259.648C69.6946 258.388 69.8066 257.129 69.8755 255.654C74.2424 255.654 78.3595 255.654 83.0193 255.654C83.0193 303.635 83.0193 351.675 83.0193 400.027C175.189 400.027 266.825 400.027 358.995 400.027C358.995 351.986 358.995 303.937 358.995 255.663C363.749 255.663 367.97 255.663 372.63 255.663C372.63 259.579 372.63 263.279 372.63 266.979C372.621 314.838 372.621 362.698 372.621 410.558C372.621 411.705 372.707 412.852 372.75 413.999C271.692 413.999 170.624 413.999 69.5654 413.999Z" fill="#314048"/>
<path d="M0.65998 200.098C24.6047 200.098 48.5494 200.098 73.5019 200.098C67.7224 194.905 62.4942 190.205 57.2832 185.53C61.5123 181.209 64.4752 178.164 67.6276 174.947C76.9041 184.219 86.103 193.267 95.1124 202.495C97.7739 205.221 97.8255 208.697 95.1468 211.439C86.1374 220.677 76.9471 229.733 67.6276 239.048C64.5183 235.813 61.5812 232.752 57.8947 228.905C62.9937 224.394 68.2133 219.771 73.4329 215.157C73.1832 214.743 72.9334 214.32 72.675 213.906C48.67 213.906 24.6564 213.906 0.651367 213.906C0.65998 209.3 0.65998 204.695 0.65998 200.098Z" fill="#314048"/>
<path d="M441.663 213.891C417.718 213.891 393.782 213.891 369.165 213.891C374.66 219.023 379.794 223.81 384.927 228.597C380.664 232.668 377.598 235.6 374.307 238.731C365.35 229.761 356.177 220.696 347.176 211.459C344.514 208.725 344.471 205.266 347.15 202.532C356.177 193.321 365.375 184.282 374.704 174.984C377.675 178.27 380.526 181.427 384.083 185.36C379.32 189.552 374.092 194.158 368.864 198.772C369.131 199.212 369.398 199.652 369.665 200.092C393.661 200.092 417.658 200.092 441.663 200.092C441.663 204.689 441.663 209.294 441.663 213.891Z" fill="#314048"/>
<path d="M187.006 372.206C187.006 367.712 187.006 363.589 187.006 359.199C191.39 359.199 195.602 359.199 200.089 359.199C200.089 363.486 200.089 367.703 200.089 372.206C195.809 372.206 191.597 372.206 187.006 372.206Z" fill="#314048"/>
<path d="M214.551 372.162C214.551 367.772 214.551 363.658 214.551 359.242C218.883 359.242 223.095 359.242 227.617 359.242C227.617 363.417 227.617 367.643 227.617 372.162C223.431 372.162 219.219 372.162 214.551 372.162Z" fill="#314048"/>
<path d="M255.29 359.178C255.29 363.74 255.29 367.854 255.29 372.227C250.881 372.227 246.677 372.227 242.207 372.227C242.207 367.872 242.207 363.654 242.207 359.178C246.557 359.178 250.769 359.178 255.29 359.178Z" fill="#314048"/>
<path d="M221.413 241.355C203.489 241.416 186.995 225.192 186.849 207.356C186.702 189.201 202.981 172.701 221.112 172.641C238.933 172.58 255.315 188.873 255.479 206.839C255.634 224.597 239.165 241.286 221.413 241.355ZM221.009 186.165C208.631 186.199 200.346 194.583 200.354 207.037C200.363 219.483 208.683 227.814 221.086 227.814C233.748 227.814 241.99 219.491 241.939 206.735C241.904 194.376 233.506 186.122 221.009 186.165Z" fill="#314048"/>
</svg>
