<svg width="280" height="271" viewBox="0 0 280 271" fill="none" xmlns="http://www.w3.org/2000/svg">
<path d="M113.38 196.269C112.485 197.126 111.56 197.968 110.673 198.856C88.7757 220.757 66.795 242.575 45.072 264.643C40.0981 269.69 34.6769 271.306 27.959 270.084C15.7745 267.884 3.04399 255.294 0.936141 243.182C-0.223933 236.497 1.43657 230.797 6.3574 225.903C29.2025 203.159 51.9187 180.302 74.7638 157.558C76.6973 155.638 77.2963 154.288 76.0528 151.51C47.3543 87.4991 86.5617 14.0325 155.749 2.01188C213.139 -7.95973 268.875 31.608 278.452 89.1231C288.02 146.623 252.376 199.759 195.404 211.894C167.881 217.76 141.684 213.146 117.459 198.454C116.382 197.802 115.313 197.126 114.237 196.473C114.131 196.413 113.986 196.413 113.38 196.269ZM160.162 119.744C165.424 115.304 171.49 112.641 177.791 115.077C183.098 117.126 185.805 115.327 188.709 111.609C190.415 109.431 192.508 107.556 194.426 105.538C198.664 101.075 202.903 96.6132 207.02 92.2724C206.626 91.3997 206.421 90.9444 206.209 90.4815C202.266 81.8834 203.934 73.035 210.644 66.9791C217.044 61.2117 226.529 60.2479 233.876 64.6342C241.61 69.2482 245.022 77.573 242.717 86.8085C242.209 88.8499 242.929 89.7378 244.377 90.8002C252.43 96.6891 260.429 102.654 268.458 108.581C268.898 108.899 269.467 109.044 270.081 109.317C271.726 80.1001 256.592 41.4354 218.552 21.4011C182.256 2.29267 138.189 8.10565 108.216 35.4555C76.3485 64.5356 71.549 105.5 80.0638 131.962C88.2526 125.253 96.3806 118.666 104.357 111.897C105.024 111.328 105.032 109.446 104.729 108.345C102.484 100.316 105.115 91.9992 111.651 86.9982C118.248 81.9517 126.96 81.4812 134.026 85.8068C140.987 90.0641 144.77 98.3434 143.026 106.312C142.541 108.543 143.155 109.491 144.899 110.508C149.903 113.445 154.832 116.511 160.162 119.744ZM137.764 117.513C136.976 118.059 136.407 118.643 135.725 118.901C130.758 120.753 127.634 123.53 128.514 129.594C128.863 131.977 126.679 133.692 123.972 133.631C121.288 133.57 119.802 131.962 119.446 129.404C119.241 127.909 119.188 126.353 119.377 124.866C119.901 120.616 115.844 121.277 113.873 119.827C113.168 119.311 111.075 119.85 110.157 120.586C102.272 126.907 94.5913 133.494 86.6527 139.748C84.1809 141.698 83.8776 143.307 85.1742 146.069C98.8904 175.362 121.159 194.333 152.625 202.104C158.153 203.47 163.923 203.842 169.723 204.7C170.087 200.321 169.003 195.502 174.257 195.305C180.285 195.077 178.761 200.662 179.337 204.351C192.045 203.774 203.646 200.685 214.822 195.669C217.946 194.265 220.001 192.793 219.735 188.779C219.629 187.17 221.411 184.514 222.905 183.99C224.33 183.497 226.514 185.143 228.333 185.918C228.728 186.084 228.985 186.57 229.66 187.291C234.111 183.315 238.645 179.664 242.709 175.551C256.638 161.474 265.077 144.529 268.276 125.003C268.511 123.546 268.155 121.216 267.177 120.465C257.548 113.088 247.751 105.947 237.94 98.8139C237.151 98.2372 235.794 97.7515 234.968 98.0247C229.311 99.8915 228.485 101.113 228.159 107.169C228.151 107.298 228.159 107.42 228.151 107.549C227.947 110.607 226.476 112.785 223.291 112.701C220.349 112.625 218.856 110.569 218.757 107.624C218.704 105.985 219.06 104.24 218.605 102.73C218.295 101.682 217.044 100.681 215.974 100.172C215.201 99.8005 213.632 99.8764 213.101 100.423C205.519 108.194 198.05 116.078 190.635 123.857C195.449 135.285 193.956 144.764 185.524 150.076C181.043 152.899 177.859 155.221 178.617 161.11C178.928 163.493 176.691 165.261 174.06 165.185C171.459 165.117 169.897 163.47 169.541 160.905C169.344 159.539 169.321 158.12 169.45 156.746C169.655 154.561 168.897 153.483 166.728 152.603C157.993 149.036 153.27 140.203 155.211 131.142C155.651 129.101 155.15 128.198 153.512 127.219C148.311 124.107 143.185 120.867 137.764 117.513ZM81.5044 164.032C81.3376 164.183 80.9357 164.495 80.587 164.844C57.8101 187.633 35.0635 210.452 12.2412 233.195C9.70873 235.722 9.51159 238.508 10.3835 241.543C13.007 250.687 19.0424 256.751 27.7771 260.204C31.7956 261.79 35.109 261.023 38.339 257.745C59.6905 236.034 81.1935 214.466 102.697 192.907C103.569 192.034 104.926 191.647 105.396 191.389C96.919 181.683 89.3141 172.971 81.5044 164.032ZM123.919 93.0617C118.286 93.1224 113.789 97.8957 113.926 103.686C114.047 109.081 118.24 113.096 123.722 113.066C129.105 113.035 134.352 107.807 134.17 102.661C133.973 97.3645 129.31 93.0009 123.919 93.0617ZM224.368 72.0029C219.106 71.9118 214.337 76.4044 214.109 81.6861C213.882 86.9148 218.734 92.0599 224.019 92.2117C228.826 92.3483 234.179 87.2487 234.331 82.3767C234.513 76.9887 229.812 72.1015 224.368 72.0029ZM183.773 134.291C183.72 128.979 179.201 124.836 173.552 124.919C167.774 125.003 163.703 129.04 163.764 134.625C163.824 140.135 168.533 144.794 173.924 144.673C179.368 144.551 183.826 139.854 183.773 134.291Z" fill="white"/>
</svg>
