<svg width="454" height="440" viewBox="0 0 454 440" fill="none" xmlns="http://www.w3.org/2000/svg">
<path d="M183.275 319.107C181.821 320.5 180.318 321.869 178.877 323.312C143.298 358.897 107.583 394.346 72.2876 430.202C64.206 438.402 55.3975 441.028 44.4823 439.043C24.6848 435.467 4.0002 415.012 0.57536 395.332C-1.30954 384.47 1.38845 375.21 9.38386 367.257C46.5027 330.303 83.4122 293.164 120.531 256.21C123.673 253.091 124.646 250.896 122.625 246.383C75.9958 142.378 139.7 23.0086 252.116 3.47751C345.363 -12.7244 435.925 51.5654 451.484 145.016C467.031 238.443 409.117 324.779 316.548 344.495C271.828 354.026 229.264 346.529 189.903 322.658C188.153 321.598 186.416 320.5 184.667 319.44C184.494 319.341 184.26 319.341 183.275 319.107ZM259.286 194.769C267.836 187.556 277.692 183.228 287.929 187.186C296.553 190.515 300.951 187.593 305.67 181.551C308.442 178.012 311.842 174.966 314.959 171.687C321.845 164.436 328.732 157.186 335.421 150.133C334.781 148.715 334.448 147.976 334.103 147.223C327.697 133.253 330.407 118.876 341.31 109.037C351.708 99.6657 367.12 98.0998 379.057 105.227C391.623 112.723 397.167 126.25 393.422 141.256C392.597 144.572 393.767 146.015 396.12 147.741C409.203 157.31 422.201 167.001 435.247 176.631C435.961 177.149 436.885 177.383 437.883 177.827C440.557 130.356 415.967 67.5331 354.16 34.9813C295.186 3.93373 223.584 13.3787 174.885 57.8169C123.106 105.066 115.308 171.625 129.142 214.621C142.448 203.721 155.654 193.018 168.614 182.019C169.698 181.095 169.711 178.037 169.218 176.249C165.571 163.203 169.846 149.689 180.466 141.564C191.184 133.364 205.339 132.6 216.821 139.628C228.13 146.545 234.278 159.998 231.444 172.944C230.656 176.569 231.654 178.111 234.487 179.763C242.618 184.535 250.626 189.516 259.286 194.769ZM222.894 191.144C221.613 192.032 220.689 192.981 219.58 193.4C211.511 196.409 206.435 200.922 207.865 210.773C208.431 214.645 204.883 217.432 200.485 217.333C196.124 217.235 193.709 214.621 193.13 210.465C192.798 208.036 192.711 205.508 193.019 203.092C193.869 196.187 187.279 197.26 184.075 194.904C182.93 194.066 179.53 194.941 178.039 196.137C165.226 206.409 152.747 217.111 139.848 227.271C135.832 230.44 135.339 233.054 137.446 237.542C159.732 285.137 195.915 315.963 247.041 328.589C256.022 330.808 265.397 331.413 274.821 332.806C275.413 325.691 273.651 317.862 282.189 317.541C291.983 317.171 289.506 326.246 290.443 332.239C311.09 331.302 329.939 326.283 348.098 318.133C353.174 315.852 356.513 313.46 356.081 306.937C355.909 304.323 358.804 300.007 361.231 299.157C363.547 298.355 367.095 301.031 370.052 302.289C370.692 302.56 371.111 303.349 372.208 304.52C379.439 298.059 386.806 292.128 393.41 285.445C416.041 262.573 429.752 235.039 434.951 203.314C435.333 200.946 434.754 197.161 433.165 195.94C417.519 183.955 401.602 172.352 385.661 160.762C384.379 159.825 382.174 159.036 380.831 159.48C371.641 162.513 370.298 164.498 369.768 174.338C369.756 174.547 369.768 174.745 369.756 174.954C369.423 179.923 367.033 183.462 361.859 183.326C357.079 183.203 354.652 179.862 354.492 175.077C354.406 172.414 354.985 169.578 354.246 167.124C353.741 165.423 351.708 163.795 349.971 162.969C348.714 162.365 346.164 162.488 345.302 163.376C332.982 176.002 320.847 188.813 308.799 201.452C316.622 220.021 314.195 235.422 300.495 244.053C293.215 248.64 288.04 252.413 289.272 261.981C289.777 265.853 286.143 268.726 281.868 268.602C277.643 268.491 275.105 265.816 274.526 261.648C274.205 259.429 274.168 257.123 274.378 254.891C274.711 251.34 273.479 249.589 269.955 248.159C255.763 242.364 248.088 228.011 251.242 213.289C251.956 209.972 251.143 208.505 248.482 206.914C240.031 201.859 231.703 196.594 222.894 191.144ZM131.483 266.728C131.212 266.975 130.559 267.48 129.993 268.047C92.9845 305.075 56.0258 342.152 18.9438 379.106C14.8291 383.212 14.5088 387.737 15.9256 392.669C20.1881 407.527 29.9945 417.379 44.1867 422.989C50.716 425.566 56.0997 424.321 61.3478 418.994C96.0397 383.717 130.978 348.675 165.916 313.645C167.333 312.227 169.538 311.598 170.302 311.179C156.529 295.408 144.172 281.253 131.483 266.728ZM200.399 151.416C191.245 151.514 183.94 159.27 184.162 168.678C184.359 177.445 191.172 183.968 200.079 183.918C208.825 183.869 217.351 175.373 217.055 167.013C216.735 158.407 209.158 151.317 200.399 151.416ZM363.609 117.199C355.059 117.051 347.31 124.351 346.94 132.933C346.571 141.428 354.455 149.788 363.042 150.035C370.853 150.257 379.55 141.971 379.797 134.055C380.092 125.3 372.454 117.36 363.609 117.199ZM297.65 218.406C297.563 209.775 290.221 203.042 281.043 203.178C271.655 203.314 265.04 209.873 265.138 218.948C265.237 227.9 272.887 235.471 281.646 235.274C290.492 235.076 297.736 227.444 297.65 218.406Z" fill="#3EDA8E"/>
</svg>
